/* XPM */
static char *bae3eeaaecab4729d02c48962655b266RIpVvIkvmoYizzuF[] = {
/* columns rows colors chars-per-pixel */
"64 64 167 2 ",
"   c None",
".  c #010101",
"X  c #0B0304",
"o  c #07090A",
"O  c #0D0D0D",
"+  c #130406",
"@  c #1B0405",
"#  c #1D0709",
"$  c #17080B",
"%  c #1C0A0C",
"&  c #0F1011",
"*  c #141111",
"=  c #191111",
"-  c #1D1D1D",
";  c #210707",
":  c #230709",
">  c #24090A",
",  c #2C0A0C",
"<  c #340B0E",
"1  c #3E0B0D",
"2  c #2F0D10",
"3  c #2E1011",
"4  c #321012",
"5  c #391517",
"6  c #3A1719",
"7  c #1F2020",
"8  c #232222",
"9  c #2A2A2A",
"0  c #322D2D",
"q  c #333334",
"w  c #393737",
"e  c gray23",
"r  c #400D0F",
"t  c #410D10",
"y  c #4A1214",
"u  c #421518",
"i  c #531213",
"p  c #5B1214",
"a  c #5D171B",
"s  c #5B191E",
"d  c #601416",
"f  c #61161A",
"g  c #6D171A",
"h  c #6F191B",
"j  c #711A1C",
"k  c #7A1B1D",
"l  c #541D20",
"z  c #5F1F24",
"x  c #6D1D21",
"c  c #741E23",
"v  c #7B1E22",
"b  c #61242A",
"n  c #7F2329",
"m  c #722E32",
"M  c #653135",
"N  c #773E40",
"B  c #444444",
"V  c #4B4444",
"C  c #484748",
"Z  c #474949",
"A  c #4A4A4A",
"S  c #554748",
"D  c #574849",
"F  c #594A4C",
"G  c #535353",
"H  c #565959",
"J  c #5A5B5B",
"K  c #705052",
"L  c #666666",
"P  c #686867",
"I  c #6C6C6C",
"U  c #6C6161",
"Y  c #726161",
"T  c #706F70",
"R  c #7F6F71",
"E  c #6F7172",
"W  c #737373",
"Q  c gray47",
"!  c #7D7576",
"~  c #821E24",
"^  c #8B1F22",
"/  c #8B2125",
"(  c #81242B",
")  c #83282F",
"_  c #972227",
"`  c #9C2326",
"'  c #922428",
"]  c #802D31",
"[  c #9D393E",
"{  c #9E363B",
"}  c #A22427",
"|  c #A7272C",
" . c #AC262B",
".. c #A3292E",
"X. c #AC292D",
"o. c #B1292C",
"O. c #BB2B2E",
"+. c #A52E34",
"@. c #AA2B31",
"#. c #B32C32",
"$. c #BD2E34",
"%. c #A53337",
"&. c #AE373C",
"*. c #A9393E",
"=. c #C32B2E",
"-. c #CA2C2F",
";. c #CC2E32",
":. c #D32F33",
">. c #DF2E31",
",. c #C73034",
"<. c #CF3036",
"1. c #D43034",
"2. c #DB3134",
"3. c #D2343A",
"4. c #DA3339",
"5. c #E62F31",
"6. c #E53335",
"7. c #E83335",
"8. c #E43439",
"9. c #EA3538",
"0. c #E33A3D",
"q. c #833D42",
"w. c #E43E43",
"e. c #894549",
"r. c #9C4246",
"t. c #834E52",
"y. c #885B5F",
"u. c #8D575C",
"i. c #896467",
"p. c #896B6C",
"a. c #906064",
"s. c #9B676A",
"d. c #E2494F",
"f. c #E14E53",
"g. c #E15055",
"h. c #E66166",
"j. c #E26A70",
"k. c #E86B72",
"l. c #E87477",
"z. c #E4767A",
"x. c #D37B81",
"c. c #8D8B8B",
"v. c #988483",
"b. c #E7858B",
"n. c #EC9699",
"m. c #EC9A9C",
"M. c #ED9EA0",
"N. c #EBA6A9",
"B. c #E7AAB1",
"V. c #EDADB2",
"C. c #EDB1B5",
"Z. c #EBB5B9",
"A. c #EEB9BE",
"S. c #EDBEC3",
"D. c #DADADB",
"F. c #DDDDDE",
"G. c gainsboro",
"H. c #E4E4E4",
"J. c #F7E4E7",
"K. c #F6E4E6",
"L. c #F8E8EB",
"P. c #F3F3F3",
"I. c #F6F6F6",
"U. c #FDFFFF",
"Y. c #FEFFFF",
"T. c #FDFEFD",
"R. c #FDFEFD",
/* pixels */
"                                                                                                                                ",
"                                                                                                                                ",
"                                                                                                                                ",
"                                                                                                                                ",
"                          q 9 q q q w q 0 q q w                             e q w w q q 0 q q q w q                             ",
"                        . . . . . . . . . . . .                             o . . . . . . . . . . . B                           ",
"                        . . . . . . . . . . . .                             o . . . . . . . X . . . A                           ",
"                      L . . . . . . . . . . . .                             o . . . . . . . . . . . A                           ",
"                      U @ ; ; ; : , , , ; # + + c.                G.        3 < , , > > ; ; : : # + S                           ",
"                B B V [ =.-.-.-.-.-.-.-.-.=.O.#.q.B B B Q       H.c.B B Z N ;.:.:.:.;.-.-.=.-.-.=.O.%.S A A A                   ",
"              q . . X | 9.9.7.7.9.7.7.7.7.7.7.9.~ . . . B D.F.P.R.I . . . p 8.7.7.7.7.7.7.7.7.7.9.9.=.@ . . O                   ",
"              q . . X  .9.7.7.7.7.7.7.7.7.7.7.7.~ . . . B D.F.P.R.I . . . p 6.6.7.7.7.7.7.7.7.7.7.7.=.; . . &                   ",
"              q . . X  .7.7.7.7.7.7.7.7.6.7.6.6.~ . X . Z D.G.P.R.T . . . d 6.6.7.7.7.7.7.7.7.7.7.7.-.; . . $                   ",
"              w X X #  .5.5.5.5.5.5.5.5.7.7.7.7.v X X . B D.H.P.R.I . X X g 6.7.7.7.7.7.7.7.7.7.7.7.=., X + *                   ",
"          I p.[ `  .o.x.N.M.m.m.m.m.n.b.w.7.7.7.=.} _ _ r.R I W ! r.` } } =.7.6.7.7.7.7.7.7.7.7.7.7.>.o.o. .X.a.Q Q T           ",
"      . . . t >.9.9.6.A.R.R.R.R.R.R.R.J.d.5.7.7.7.9.9.7.1., . . +  .9.9.7.7.7.7.7.7.7.7.7.7.7.7.7.7.7.9.9.9.7.a . . . I         ",
"      o . . r :.7.8.8.Z.R.R.R.R.R.R.R.J.d.7.7.7.7.7.7.7.1., . . + X.9.7.7.7.7.7.6.7.7.7.7.7.7.7.7.7.7.7.7.7.6.a . . . I         ",
"      o . . r 2.7.9.8.C.R.R.R.R.R.R.R.L.f.7.7.7.7.7.7.7.<.< . . X X.7.7.7.7.7.6.7.7.7.7.6.7.7.7.7.7.7.7.7.7.6.a . . . W         ",
"      . . . r :.6.8.8.S.R.R.R.R.R.R.R.J.f.7.7.7.7.7.7.7.<.< X X % X.7.7.7.7.7.7.7.7.6.6.7.7.7.7.7.7.7.7.7.7.6.a . . . I         ",
"      o . . t 2.5.6.8.S.R.R.T.S.j.l.h.h.0.5.7.7.7.7.6.7.2.o. . .o.1.6.7.7.7.7.7.7.7.5.7.7.7.7.7.7.7.7.7.6.6.6.a . . . P         ",
"      o . . r 2.6.8.8.Z.R.R.R.B.5.5.5.5.6.7.7.7.7.7.6.7.7.7.7.7.7.7.7.7.7.7.7.7.7.7.7.7.7.7.7.7.7.7.7.7.7.7.6.s . . . P         ",
"      . . . t :.6.9.5.B.R.R.R.B.2.7.6.7.7.7.7.7.7.7.7.7.7.7.7.6.7.7.7.7.7.7.7.7.7.7.7.7.7.7.7.7.7.7.7.7.7.7.2.s . . . P         ",
"      o . . t 2.6.9.2.N.R.R.T.Z.6.7.7.7.7.7.7.7.7.7.7.7.7.7.7.7.7.7.7.7.7.7.7.7.7.7.7.7.7.7.7.7.7.7.7.7.7.7.2.s . . . P         ",
"      o . . 1 4.6.6.6.B.R.R.T.Z.4.7.7.6.7.7.7.7.7.7.7.7.7.7.7.7.7.7.7.7.7.7.5.7.7.7.7.6.7.7.7.7.7.7.7.7.7.7.6.s . . . I         ",
"      o . . 1 1.7.7.6.z.C.V.C.b.6.7.7.7.7.7.7.7.7.7.7.7.7.7.7.7.7.7.7.7.7.7.7.7.7.7.7.7.7.7.7.7.7.7.7.7.7.7.8.l . . . W         ",
"      X . . t 1.9.7.6.6.5.6.6.6.7.7.7.7.7.7.7.7.7.7.7.7.7.7.7.7.7.7.7.7.7.7.7.7.7.7.7.7.7.7.7.7.7.7.7.7.7.6.8.s . . . I         ",
"      o . . r 2.9.7.7.7.7.7.7.7.7.7.7.7.7.7.7.7.7.7.7.7.7.7.7.7.7.7.7.7.7.7.6.7.7.7.6.7.7.7.7.7.7.7.7.7.7.7.2.s . . . W         ",
"      o . . r :.7.7.7.7.7.7.7.7.7.7.7.7.7.7.7.7.7.7.7.7.7.6.7.7.7.7.6.7.7.7.7.7.7.7.7.7.7.7.7.7.7.7.7.7.7.7.8.s . . . I         ",
"      . . . r 2.9.9.7.6.7.6.7.7.7.7.7.7.7.7.7.7.7.7.7.7.7.7.6.7.7.7.7.7.7.7.7.7.7.7.7.7.7.7.7.7.7.7.7.7.7.9.8.a . . . P         ",
"      Q W E i.%.....X.>.7.7.7.7.7.7.7.6.7.7.7.6.7.7.7.7.7.7.6.5.7.7.7.7.7.7.7.7.7.7.7.7.7.7.7.7.7.7.2.@...| ..y.W   W           ",
"              w . X > $.7.7.7.7.7.7.7.7.7.7.7.7.7.7.7.7.7.7.7.7.7.7.7.7.7.7.6.7.7.7.6.7.7.7.7.7.7.7.$.% o X =                   ",
"              q . . + o.9.7.7.7.7.7.7.7.7.7.7.7.7.7.7.7.6.7.7.7.7.7.7.5.7.7.7.7.7.7.7.7.7.7.7.7.7.9.$.$ . . O                   ",
"              e . . $  .9.7.7.7.7.7.7.7.7.7.7.7.7.7.7.7.7.7.7.7.7.7.7.7.7.7.6.6.7.7.7.7.7.7.7.7.7.7.,.$ . . O                   ",
"              q . . + o.9.7.7.6.7.7.7.7.7.7.7.7.6.7.7.7.6.7.7.7.7.7.7.7.7.7.7.7.6.7.7.7.7.6.7.7.7.7.O.+ . . o                   ",
"              I B B V *.;.;.;.2.7.6.7.7.7.7.7.7.7.5.7.7.7.7.7.7.7.7.7.7.7.7.7.7.7.7.7.7.6.7.:.,.,.<.&.F A A A                   ",
"                      Y ; > > c 8.7.7.7.7.6.7.7.6.6.7.7.7.7.7.7.7.7.7.7.7.7.7.7.7.7.7.7.7.6./ : > # F                           ",
"                      L . . . l 9.7.7.7.7.7.7.7.7.7.7.7.7.7.7.7.7.7.7.7.7.7.7.7.7.7.7.7.6.9.v . . . A                           ",
"                      P . . . l 2.7.7.7.7.7.7.5.7.7.7.7.7.7.7.7.7.7.7.7.6.7.7.7.7.7.7.7.7.9.c . . . B                           ",
"                      P . . . l 0.7.7.7.7.7.7.7.7.7.7.7.7.7.7.7.7.7.7.7.7.7.7.7.7.6.7.8.6.9.v . . . B                           ",
"                        7 7 7 M 2.8.2.2.6.6.7.7.7.7.7.6.7.7.7.7.7.7.7.6.7.7.7.7.7.7.7.6.6.2.] 8 8 8 J                           ",
"                                l y u s 1.7.7.7.7.7.7.7.7.7.7.7.6.7.7.7.7.7.7.7.7.2.h i i y v.                                  ",
"                                & . . , <.7.7.7.7.7.7.7.7.7.7.7.7.7.7.7.7.6.7.7.7.1.3 . . .                                     ",
"                                * . . , :.7.7.7.7.7.6.7.7.7.7.7.7.7.7.7.7.7.9.7.8.3.4 . . .                                     ",
"                                & . . 2 :.7.7.7.7.7.7.7.7.7.7.7.6.7.7.7.7.7.7.7.7.3.4 . . .                                     ",
"                                - O O 6 <.7.7.7.6.7.7.7.6.7.7.7.5.7.7.7.7.7.9.9.9.3.6 & & O                                     ",
"                                        e.h j k $.6.7.7.7.7.7.7.7.7.7.7.7.-.v x b m                                             ",
"                                        A . . . ' 9.7.7.7.7.7.7.7.7.7.7.7.o.+ . . 7                                             ",
"                                        Z . . X ` 7.7.7.7.7.7.7.7.7.7.7.7.#.+ . . 3                                             ",
"                                        A . . X ` 7.7.7.7.7.7.6.7.8.7.7.7.@.+ . . -                                             ",
"                                        B . . . _ 9.7.7.7.6.7.7.6.9.7.9.9.+.X . . -                                             ",
"                                                s.( / / } 6.9.7.8.+.( ) ( u.                                                    ",
"                                                  o . . < ;.7.7.9.b . . . I                                                     ",
"                                                  o . . < 1.7.7.0.b . . . I                                                     ",
"                                                  . . . < 1.7.6.8.z . . . P                                                     ",
"                                                  . . . < >.9.9.9.s . . . I                                                     ",
"                                                  J J J K +.X.X.#.t.J G G                                                       ",
"                                                          0 X X =                                                               ",
"                                                          9 . . &                                                               ",
"                                                          9 . . &                                                               ",
"                                                          9 . . O                                                               ",
"                                                          I G G G                                                               ",
"                                                                D.                                                              ",
"                                                                  F.                                                            ",
"                                                                                                                                "
};
