/* XPM */
static char *result[] = {
/* columns rows colors chars-per-pixel */
"64 61 177 2 ",
"   c #010001",
".  c #0A0106",
"X  c #0B040A",
"o  c #070308",
"O  c #13030D",
"+  c #1A030F",
"@  c #120611",
"#  c #1D0312",
"$  c #1A091D",
"%  c #160818",
"&  c #220415",
"*  c #27051B",
"=  c #1F0922",
"-  c #230926",
";  c #260A29",
":  c #2A0A2D",
">  c #2A0728",
",  c #350424",
"<  c #3A0426",
"1  c #3E042A",
"2  c #340729",
"3  c #2E0C33",
"4  c #310D36",
"5  c #3C0937",
"6  c #350E3A",
"7  c #390E3E",
"8  c #3F0738",
"9  c #321036",
"0  c #36133A",
"q  c #39103E",
"w  c #3A1A3E",
"e  c #44032D",
"r  c #48042F",
"t  c #4B0331",
"y  c #420638",
"u  c #400D3F",
"i  c #560139",
"p  c #5A013B",
"a  c #530236",
"s  c #3C0E41",
"d  c #3D1043",
"f  c #3F2142",
"g  c #400E41",
"h  c #430C49",
"j  c #5C0543",
"k  c #411346",
"l  c #45154C",
"z  c #48174F",
"x  c #45194B",
"c  c #4A1750",
"v  c #4C1853",
"b  c #4F1A58",
"n  c #531B5B",
"m  c #6C0247",
"M  c #6E0348",
"N  c #620040",
"B  c #73044B",
"V  c #79064F",
"C  c #7D0653",
"Z  c #4B2C4D",
"A  c #432346",
"S  c #4B304E",
"D  c #532B57",
"F  c #59335D",
"G  c #583B5C",
"H  c #571B60",
"J  c #5B1D64",
"K  c #5F1D68",
"L  c #621E6B",
"P  c #661F70",
"I  c #691F74",
"U  c #6F1E7B",
"Y  c #5E2866",
"T  c #5D3162",
"R  c #65266E",
"E  c #672072",
"W  c #6A2075",
"Q  c #6E2179",
"!  c #71237D",
"~  c #5B415D",
"^  c #5E4461",
"/  c #654A68",
"(  c #6C556E",
")  c #6E5471",
"_  c #775A7A",
"`  c #7B677E",
"'  c #820656",
"]  c #88065A",
"[  c #940661",
"{  c #9C0467",
"}  c #A5026D",
"|  c #A8036F",
" . c #AB0471",
".. c #761E82",
"X. c #762382",
"o. c #792585",
"O. c #7B2987",
"+. c #7D2D89",
"@. c #7E5084",
"#. c #7F6D82",
"$. c #83288F",
"%. c #81278C",
"&. c #81338C",
"*. c #862994",
"=. c #892A97",
"-. c #8E2B9C",
";. c #902B9E",
":. c #883F92",
">. c #C60B83",
",. c #CE0B89",
"<. c #CC0B87",
"1. c #D8088F",
"2. c #D30A8D",
"3. c #DB0792",
"4. c #EC069C",
"5. c #FC0DAA",
"6. c #8C4495",
"7. c #8F4B98",
"8. c #914E9A",
"9. c #93529C",
"0. c #95589E",
"q. c #875B8C",
"w. c #836B85",
"e. c #89778B",
"r. c #8D6F90",
"t. c #8F7891",
"y. c #98779B",
"u. c #9A5CA2",
"i. c #9E64A5",
"p. c #A26BA8",
"a. c #A572AB",
"s. c #A977AF",
"d. c #AC7BB1",
"f. c #938294",
"g. c #9F87A2",
"h. c #A587A8",
"j. c #A696A7",
"k. c #AD87B2",
"l. c #B184B6",
"z. c #B48BB9",
"x. c #B992BD",
"c. c #B39FB4",
"v. c #AFA4B0",
"b. c #B2A3B4",
"n. c #BAA3BD",
"m. c #B9AEBA",
"M. c #B6AAB7",
"N. c #BAB0BB",
"B. c #BD9AC1",
"V. c #C3A4C6",
"C. c #C7ABCA",
"Z. c #C3BAC4",
"A. c #C6B3C9",
"S. c #CDB6D0",
"D. c #D2BED4",
"F. c #CAC4CA",
"G. c #CFCACF",
"H. c #C6C0C7",
"J. c #D3C2D4",
"K. c #D2CDD2",
"L. c #DBCEDC",
"P. c #D7C7D9",
"I. c #D7D2D6",
"U. c #DBD2DC",
"Y. c #DDDBDE",
"T. c #DFD4E0",
"R. c #E2DCE2",
"E. c #E1D7E2",
"W. c #E5E3E6",
"Q. c #E8E6E9",
"!.  c None",
"~. c #E7E5E8",
"^. c #EFF0EF",
"/. c #F0F4EF",
"(. c #EFF2F0",
"). c #F1F3F1",
"_. c None",
/* pixels */
"_._._._._._._._._._._._._._._._._._._._._._._._._._._._._._._._._._._._._._._._._._._._._._._._._._._._._._._._._._._._._._._._.",
"_._._._._._._._._._._._._._._._._._._._._._._._._._._._._._._._._._._._._._._._._._._._._._._._._._._._._._._._._._._._._._._._.",
"_._._._._._._._._._._._._._._._._._._._._._._._._._._._._._._._._._._._._._._._._._._._._._._._._._._._._._._._._._._._._._._._.",
"!.!.!.!.!.!.!.!.!.!.!.!.!.!.!.!.!.!.!.!.!.!.!.!.!.!.!.^.^.^./.!.^.^.^.^.!.!.!.!.!.!.!.!.!.!.!.!.!.!.!.!.!.!.!.!.!.!.!.!.!.!.!.!.",
"!.!.!.!.!.!.!.!.!.!.!.!.!.!.!.!.!.!.!.!.!.!.!.!.!.!.I.F.F.F.F.F.F.F.H.I.!.!.!.!.!.!.!.!.!.!.!.!.!.!.!.!.!.!.!.!.!.!.!.!.!.!.!.!.",
"!.!.!.!.!.!.!.!.!.!.!.!.!.!.!.!.!.!.!.!.!.!.!.^.^.).` 0 w w w w w w 0 ( !.!.).^.!.!.!.!.!.!.!.!.!.!.!.!.!.!.!.!.!.!.!.!.!.!.!.!.",
"!.!.!.!.!.!.!.!.!.!.!.!.!.!.!.!.!.!.!.!.!.!.K.m.m.N./ 6 7 7 6 7 7 6 6 G m.m.m.K.!.!.!.!.!.!.!.!.!.!.!.!.!.!.!.!.!.!.!.!.!.!.!.!.",
"!.!.!.!.!.!.!.!.!.!.!.!.!.!.!.!.!.!.!.!.^.).j.3 9 9 k c l z z l z z z k 9 4 4 e.(.^.!.!.!.Q.!.!.!.!.!.!.!.!.!.!.!.!.!.!.!.!.!.!.",
"!.!.!.Q.!.!.!.!.!.!.!.!.!.!.!.!.!.!.!.^.I.j.` 7 7 q z n n b b n n b n z 7 s 7 ( j.F.!.!.!.!.!.!.!.!.Q.!.!.!.!.!.!.!.!.!.!.!.!.!.",
"!.!.!.!.!.!.!.!.!.!.!.!.!.!.!.!.!.!.!.).M.4 q z c z H L L L L L L L L H z z z s 3 j.).!.!.!.!.!.!.!.!.!.!.!.!.!.!.!.!.!.!.!.!.!.",
"!.!.!.!.!.!.!.!.!.!.!.!.!.!.!.!.!.!.Y.f._ d x n n n H L I Q Q Q Q Q L L n n n c s ( f.G.^.!.!.!.!.!.!.!.!.!.!.!.!.!.!.!.!.!.!.!.",
"!.!.!.!.!.!.!.!.!.!.!.!.!.!.!.!.!./.Z.9 4 z n L L L L L ! o.o.o.o.! L L L R L n z 7 3 b.^.!.!.!.!.!.!.!.!.!.!.!.!.!.!.!.!.!.!.!.",
"!.!.!.!.!.!.!.!.!.!.!.!.!.!.!.!.Y.w.( k z n J L Q ! Q ! %.*.*.*.*.%.! ! Q E L J n c s / w.I.^.!.!.!.!.!.!.!.!.!.!.!.!.!.!.!.!.!.",
"!.!.!.!.!.!.!.!.!.!.!.!.!.!.!.!.G.w 4 z b L L L Q o.o.o.=.;.-.-.;.-.o.o.o.! L L L n c 6 3 Z.^.^.!.!.!.!.!.!.!.!.!.!.!.!.!.!.!.!.",
"!.!.!.!.!.!.!.!.!.!.!.!.!.!.Y.` / k l J J L W ! ! o.$.=.-.-.;.;.-.-.=.*.o.o.! I L K H c l ^ _ I.!.!.!.!.!.!.!.!.!.!.!.!.Q.!.!.!.",
"!.!.!.!.!.!.!.!.!.!.!.!.!.!.Y.Z 4 l b L L L Q o.o.o.*.;.-.-.-.-.-.-.-.*.o.o.o.! L L L n x 6 w G.!.!.!.!.!.!.!.!.!.!.!.!.!.!.!.!.",
"!.!.!.!.!.!.!.!.!.!.!.!.!.^.T.S 4 x b K I X.X.X.o.o.Q I W W E E W E W Q o.o.o.o.! I R v z 0 A K.!.!.!.!.!.!.!.!.!.!.Q.!.!.!.!.!.",
"!.!.!.!.!.Q.!.!.!.!.!.!.!.Y.G.S 6 z b K W X.X.X.X.o.E K K K K K K K K L X.o.X.o.o.I L n z 0 u Z.Y.!.!.!.!.!.!.!.!.!.!.!.!.!.!.!.",
"!.!.!.!.!.!.!.!.!.!.!.!.W.( f x z J L X.Q E E E P L n v c c v v v v v n L L L L L U X.E K c l A ^ Y.!.!.!.!.!.!.!.!.!.!.!.!.!.!.",
"!.!.!.!.!.!.!.!.!.!.!.!.W.~ 3 z b K E X.Q J J H J H v k l l l l l l l v H J J K K Q X.P L n z 4 S Y.!.!.!.!.!.!.!.!.!.!.!.!.!.!.",
"!.!.!.!.!.!.!.!.!.!.!.^.Q.~ 4 H K R L E H c c v d 0 6 4 6 4 4 4 4 4 4 4 9 d c c z H L L L L J 6 S R.^.!.!.!.!.!.!.!.!.!.!.!.!.!.",
"!.!.!.!.!.!.!.!.!.!.!.F.M.F s J L H H J n l d 0 : - - - - - - - - - - - - : 0 s k b K J H L L 7 Z b.H.!.!.!.!.!.!.!.!.!.!.!.!.!.",
"!.!.!.!.!.!.!.!.!.!.^.) 3 d c K K c z c l 3 $                                 % 4 d z z v J L z l 4 ^ ~.!.!.!.!.!.!.!.!.!.!.!.!.",
"Q.!.!.!.!.!.!.!.!.!.!.( 3 v n H n z l k s y 2 & & & + +             O + & # & 2 y u k x v n n n c 3 ~ ~.!.!.!.!.!.Q.!.!.!.!.!.!.",
"!.!.!.!.!.!.!.!.!.^.(.) 3 H K v c c l 3 5 p p p p p t 1 O         . 1 r p p p p p y 9 k c z v L H 4 G !.^.!.!.!.!.!.!.!.!.!.!.!.",
"!.!.!.!.!.!.!.!.!.m.f.F s b n c l k g y j ' [  .[ ' N t * # # # & * r p ' [ | [ ' N y u d x c n n d D t.c.!.!.!.!.!.!.!.!.!.!.!.",
"!.!.!.!.!.!.!.!.^.` ; d c c z z x 4 5 p V  .2.5.2. .V p e e 1 e e r p M  .<.5.3. .' p 8 4 l l z c c k : ( Q.!.!.!.!.!.!.!.!.!.!.",
"!.!.!.!.!.!.!.!.!.w.3 k z z z c d % * p V  .,.5.4.3. .] a 1 e e 1 t ] } 3.4.5.1.| C p > % d c z z z k 3 ( !.!.!.!.!.!.!.!.!.!.!.",
"!.!.!.!.!.!.!.!.^.w.3 k c c c c d o O p B  .,.5.5.5.>. .p e e 1 1 i | >.5.5.5.2. .C p +   q c c z c l 3 ) !.!.!.!.!.!.!.!.!.!.!.",
"!.!.!.!.!.!.!.M._ F s n J v l s 3 o X e i B [ >.>.>.[ B t 1 1 e 1 r B ] >.>.>.} B p r +   3 7 l v H n k D _ j.^.!.!.!.!.!.!.!.!.",
"!.!.!.!.!.!.!.g.h c c H K b l 6 ; o o < e p C |  . .B p t 1 1 1 1 e i m } | | ' p r 1 O   - 4 l v L J c c h r.^.!.!.!.!.Q.!.!.!.",
"!.!.!.!.!.!.^.g.l n K n v c l 6 ; o   . # e i m m m i e e 1 O O 1 e e a m m m p e * .     ; 6 l c v v K n k r.^.!.!.!.!.!.!.!.!.",
"!.!.!.!.!.Q.Y.y.c n L b z z l 4 : o     X < e p p p r 1 1 < .   , < 1 r i p p t < +     o ; 6 l l l b L J l r.Y.W.!.!.!.!.!.!.!.",
"!.!.!.!.^.m.T R L L L v l q 4 4 3 : -     o & e e e e e +         O 1 e e e e *       $ 3 3 3 6 0 l v L K K K T j.!.!.!.!.!.!.!.",
"!.!.!.!./.c.z n L L L n v 7 4 4 9 9 ; X o   + , , , < , .         . , , , < < +   o o - 4 6 0 3 0 c n K K L H c h.^.!.!.!.!.!.!.",
"!.!.!.!./.n.J L L L L L K 7 4 l l 6 3 3 =                                         $ 3 9 3 k l 4 6 J K L L L L K k.).!.!.!.!.!.!.",
"!.!.!.R.A.a.Y K H L L L L d 7 l l q 0 3 ; X X X o                         o X X X = 6 q q l l s d K L L L J K K y.Z.Y.!.!.!.!.!.",
"!.!.^.Z.D n L n z n L L L v z z l z k 6 3 3 3 3 %                         O 3 3 3 3 3 d l c c x c K L L H x n L H c b.(.!.!.!.!.",
"!.!.!.A.n n H n v L I L L v z z z z k 6 6 d q d - @ O @ @ @ @ O @ @ @ @ @ = q q d 9 3 d z z z z v K L I L n n H n n b.!.!.!.!.!.",
"!.!.^.A.L H z n L ! o.I L b z z z z l 3 6 z x z d 9 3 3 4 4 4 4 3 3 3 3 9 q z z z d 3 l z z z z v K P o.X.L n l n K n.^.!.!.!.!.",
"!.!.!.I.h.q.n L Q ! o.W R v z n n c x d d z z z l g 6 4 7 q q d d q 4 9 d d c z z l d l c n n c c L L o.! U L n @.a.J.!.!.!.!.!.",
"!.!.!.!.).n.L W o.o.o.W L v z L K c z z c c z z z z q 4 l c z z z l 4 q c l c z z z z x c J L c v L E o.o.o.U K k.^.!.!.!.!.!.!.",
"!.!.!.!.^.n.L U o.o.o.W L n n L K c x z z z z z n n l k l z z z c l d l H n c c z z z z c J R H H L I o.o.o.Q K j./.!.!.!.!.!.!.",
"!.!.!.!.^.c.L I o.o.o.E L L L L K z c c z z z z n L n z z z z z z z z b L H z l z z z z c H K K L L L o.o.o.Q K k.).!.!.!.!.!.!.",
"!.!.!.!.^.V.! U E ! O.E L L R Q Q K H x v J n x n P L n v z z z z v H J L H x n H b z n J W Q E L L E X.! E Q U z.^.!.!.!.!.!.!.",
"!.!.!.!.^.V.X.! R ! o.E L L L X.X.L J c n L H z n L L L b z c z c v L L L H c n L n z J L X.X.E L L E o.! R Q o.x.^.!.!.!.!.!.!.",
"!.!.!.!.!.V...a.J.i.X.E L Q X.o.X.E K H K L K J I ! P L R n n L J K K L X.W J K L K J K L X.o.X.! L E ! 0.J.k.X.x.^.!.!.!.!.!.!.",
"!.!.!.!./.C.&.x.).d...U L ! o.X.X.L E L L L L L Q o.Q L L L L L L L E E o.! L L L L L L L X.o.o.X.L E ..i.!.V.&.x.!.!.!.!.!.!.!.",
"!.!.!.!.!.W.L.R.^.d.X.X.X.o.o.o.o.X.! L I X.W L Q o.X.o.E L L L L P ! ! o.! L Q ! I L ! o.o.o.O.o.o.o.! i.!.W.U.W.!.!.!.!.!.!.!.",
"!.!.!.!.!.!.!.^.!.d...o.o.o.o.o.o.o.! L I o.! L ! X.o.o.I P L L L W o.o.o.! L U o.I L ! o.o.o.o.o.o.o...i.!.!.!.!.!.!.!.!.!.!.!.",
"!.!.!.!.!.!.!.!.^.d...o.o.o.o.X.X.o.! L W o.o.o.o.o.o.o.o.! E L ! o.o.o.o.o.o.o.o.Q L ! o.X.! o.o.o.o...i.!.!.!.!.!.!.!.!.!.!.!.",
"!.!.!.!.!.!.!.!.!.x.9.&.o.o.O.9.9.O.X.I Q o.o.o.o.o.o.o.o.o.W W o.o.o.o.o.o.o.o.o.! P ! O.8.9.%.o.o.$.9.l.!.!.!.!.!.!.!.!.!.!.!.",
"!.!.!.!.!.!.!.!.!.Q.W.i.X...$.L.L.&.o.X.o.o.o.o.o.o.o.o.o.o.o.o.o.o.o.o.o.o.o.o.o.o.o.o.+.J.R.6.! o.9.W.!.!.!.!.!.!.!.!.!.!.!.!.",
"!.!.!.!.!.Q.!.!.!.!.!.i.o.u.s.R.T.&.o.o.o.o.o.o.o.o.o.o.o.o.o.o.o.o.o.o.o.o.o.o.o.o.o.o.$.D.W.d.p.o.9.Q.!.!.!.!.!.!.!.!.!.!.!.!.",
"!.!.!.!.!.!.!.!.!.!.!.i.o.J.^.!.T.&...o.o.o.X...X.o.o.o.o.o.o.o.O.o.o.o.o.o...X.o.o.o.X.o.D.^.^.L.$.9.Q.!.!.!.!.!.!.!.!.!.!.!.!.",
"!.!.!.!.!.!.!.!.!.!.!.V.l.T.^.!.E.z.a.O.o.o.7.l.9.X.o.o.o.o.o.o.o.o.o.o.o.6.l.0.X.o.o.i.l.E.!.!.E.l.x.!.!.!.!.!.!.Q.!.!.!.!.!.!.",
"!.!.!.!.!.!.!.!.!.!.!.!.^.!.!.!.!./.J.%.X...d.).l...o.o.o.o.o.O.o.o.o.o...a./.x...o...C.).^.!.!.!.!.!.!.Q.!.!.!.!.!.!.!.!.!.!.!.",
"!.!.!.!.!.!.!.!.!.!.!.!.!.!.!.!.!.!.E.B.s.X.d.^.D.x.8.X.o.o.o.o.o.o.o.6.x.S.^.x...p.B.T.!.!.!.!.!.!.!.!.!.!.!.!.!.!.!.!.!.!.!.!.",
"!.!.!.!.!.!.!.!.!.!.!.!.!.!.!.!.!.!.!./.C.o.d.^.^./.a...o.o.o.o.o.o.X.u.!.^.^.z.! B./.!.!.!.!.!.!.!.!.!.!.!.!.!.!.!.!.!.!.!.!.!.",
"!.!.!.!.!.!.!.!.!.!.!.!.!.!.!.!.!.!.!.!.E.C.P.!.!.!.P.C.7.X.O.! o.:.V.D.!.!.!.L.C.T.!.!.!.!.!.!.!.!.!.!.!.!.!.!.!.!.!.!.!.!.!.!.",
"!.!.!.!.!.!.!.!.!.!.!.!.!.!.!.!.!.!.!.!.!.^.!.!.!.!.^.!.i.O.O.%.%.8.Q.^.!.!.!.!.^.!.!.!.!.!.!.!.!.!.!.!.!.!.!.!.!.!.!.!.!.!.!.!."
};
