/* XPM */
static char *e70f0ff9701747a2f40b092e39da6591U2LYIsAtkTOZ3TKb[] = {
/* columns rows colors chars-per-pixel */
"64 61 163 2 ",
"   c None",
".  c #010001",
"X  c #090106",
"o  c #0B030B",
"O  c #070309",
"+  c #13020E",
"@  c #0F0611",
"#  c #100612",
"$  c #1C0414",
"%  c #130817",
"&  c #150919",
"*  c #190B1D",
"=  c #24051A",
"-  c #20081D",
";  c #1D0C22",
":  c #2F0622",
">  c #210D25",
",  c #250D2B",
"<  c #2A0D2D",
"1  c #2C0A25",
"2  c #320625",
"3  c #370628",
"4  c #3A072A",
"5  c #3E082D",
"6  c #27102D",
"7  c #28112E",
"8  c #290E31",
"9  c #3E0F36",
"0  c #2D1234",
"q  c #321336",
"w  c #3B1036",
"e  c #34153C",
"r  c #3A153E",
"t  c #351C3C",
"y  c #38203E",
"u  c #41092E",
"i  c #440931",
"p  c #4B0C36",
"a  c #4F0C38",
"s  c #510C3A",
"d  c #580F3F",
"f  c #371740",
"g  c #3A1643",
"h  c #3C1945",
"j  c #3F1A48",
"k  c #3C2342",
"l  c #431C4D",
"z  c #531342",
"x  c #461D50",
"c  c #4A1F55",
"v  c #4D1F5A",
"b  c #631146",
"n  c #671349",
"m  c #6B144C",
"M  c #751753",
"N  c #7A1857",
"B  c #7D1959",
"V  c #412747",
"C  c #402847",
"Z  c #462D4C",
"A  c #47314D",
"S  c #48324D",
"D  c #4C2056",
"F  c #4D2F55",
"G  c #4E215A",
"H  c #51225E",
"J  c #503857",
"K  c #55345E",
"L  c #543C5B",
"P  c #552363",
"I  c #592567",
"U  c #572D63",
"Y  c #5B266A",
"T  c #5E2A6D",
"R  c #573660",
"E  c #60286F",
"W  c #642974",
"Q  c #6B277D",
"!  c #672B78",
"~  c #6C2C7D",
"^  c #57435C",
"/  c #59455F",
"(  c #5B4661",
")  c #5B4860",
"_  c #644E69",
"`  c #67556C",
"'  c #69566E",
"]  c #6A596F",
"[  c #6F5E73",
"{  c #725F77",
"}  c #74587B",
"|  c #77687C",
" . c #7A6B7E",
".. c #75627A",
"X. c #851B5E",
"o. c #891C62",
"O. c #891C61",
"+. c #911E67",
"@. c #931F69",
"#. c #97206C",
"$. c #9A216E",
"%. c #9D2270",
"&. c #B3287F",
"*. c #6F2E81",
"=. c #6F2E82",
"-. c #6F2E81",
";. c #702E82",
":. c #702E82",
">. c #723283",
",. c #763987",
"<. c #77328A",
"1. c #7B338E",
"2. c #7B348F",
"3. c #78328B",
"4. c #773A88",
"5. c #793D89",
"6. c #7E3592",
"7. c #7F468E",
"8. c #775381",
"9. c #7C6D80",
"0. c #813696",
"q. c #823696",
"w. c #833798",
"e. c #843799",
"r. c #B42881",
"t. c #BB2B86",
"y. c #BF2B88",
"u. c #C52D8C",
"i. c #C82E8F",
"p. c #CA2E90",
"a. c #D73299",
"s. c #EA37A7",
"d. c #EE38AA",
"f. c #805E89",
"g. c #834C92",
"h. c #865195",
"j. c #895597",
"k. c #8A5798",
"l. c #8B5A99",
"z. c #905F9D",
"x. c #846B8B",
"c. c #88718E",
"v. c #8B7D8E",
"b. c #827486",
"n. c #92639F",
"m. c #8A7490",
"M. c #907298",
"N. c #9567A1",
"B. c #966AA3",
"V. c #986CA4",
"C. c #9B72A6",
"Z. c #9E75A9",
"A. c #A37DAE",
"S. c #8E8191",
"D. c #948398",
"F. c #9C89A1",
"G. c #9B82A2",
"H. c #A085A7",
"J. c #A583AE",
"K. c #A681B0",
"L. c #A986B2",
"P. c #AB89B4",
"I. c #B192B9",
/* pixels */
"                                                                                                                                ",
"                                                                                                                                ",
"                                                     .t t t t t t t t '                                                         ",
"                                                    _ 0 q q e e e e 0 L                                                         ",
"                                              0 0 0 h l l l l l l l l h 0 t 8 v.                                                ",
"                                            ..e e e l D D D G c c c G l e e e `                                                 ",
"                                          0 e l D l H Y P I I I I I Y P l l l f 8                                               ",
"                                      D.{ e l v G G P P W W W W W W Y P G v v l e ]                                             ",
"                                      0 e l c Y I I I P ! =.=.=.=.~ Y P I I I H l e ,                                           ",
"                                  b.' h l G P I E ! ! ! <.2.6.6.2.<.! ! ! W I P H l h _ 9.                                      ",
"                                  k 8 l c I Y Y ! =.=.=.6.w.w.w.e.0.;.:.:.! I I I v l e 0                                       ",
"                              | ) h l P P I T ! ~ =.2.6.0.w.e.e.w.0.6.2.:.~ ! W I P H l h ( [                                   ",
"                              Z 8 l x I I Y W :.~ ~ 2.w.6.w.6.6.0.0.0.6.=.=.:.W I Y I c l 0 y                                   ",
"                              S 0 l x I E ~ ~ :.>.=.! E E W W W T W W W ~ =.:.:.~ E I c l e k                                   ",
"                              Z q l D Y E ~ :.~ ~ ~ T P P P P P P P P Y ~ ~ ~ ~ ~ W Y v l e h                                   ",
"                          ] k l l P Y ~ ! Y Y Y T Y G x x x x D x x x G T Y T Y Y W ~ T P l l C )                               ",
"                          ^ 8 l c P T ~ W P P P P G x j j j j j j j j x H P H P P W ~ T I c l 8 A                               ",
"                          ^ 0 H I Y I I P x l x h q 0 q 0 0 0 0 0 0 0 0 0 e x D l H Y I Y I P e A                               ",
"                          J e P I P P P G h f q 7 ; ; > > > > > > > ; > > 7 q e h D P P P P P f Z                               ",
"                      ] 0 j x P P x j x h 0 * . . . . . . . . . . . . . . . . & 0 h l l l P I l j 0 (                           ",
"                      ' 8 x G H G l l h f w < = $ = $ + . . . . . . + $ = $ $ 1 w r h j l G H G x 0 ^                           ",
"                      ] 8 G I x l l j 0 w a s a s s u 3 + . . . . X 2 u s s s s s w 0 h l l l I P 8 ^                           ",
"                    S.J f c G x l f e w s M X.$.O.M d i = $ $ $ $ = i s M X.$.o.M z 9 r h j l G v f F v.                        ",
"                  9., h x j j x j 0 w s m $.u.d.u.%.m s u 4 4 4 4 u s n $.t.d.i.%.M a w 0 j l l l l h , '                       ",
"                  9.7 h j x j j j & * s m %.t.s.a.p.$.B p 3 4 4 4 i N #.u.a.s.u.%.M s > # r l l l l j 8 '                       ",
"                  9.0 h x x x x h . + s m $.t.s.s.d.t.$.d 4 4 4 4 a #.r.s.s.s.u.$.M s $ . e l l l l h 8 '                       ",
"                } K h D H x j f 0 X o 5 a n O.r.r.r.X.n i 4 4 4 4 i b B r.r.r.o.n s u + . 7 e l x H v g F }                     ",
"              F.h l l H I D j q 6 . o 2 5 s m $.#.$.m a u 4 4 4 4 5 a b #.$.%.N s u 4 + . > 0 j x P P x l j m.                  ",
"              H.l v P c x l j q > . . o $ u a b b b a 5 4 3 + + 2 5 5 p b b b s i = X . . ; q j x x c P v j c.                  ",
"              M.l G I c l l j q 7 O . . + 2 u s s a u 4 3 2 X . 2 2 3 5 a a a i 2 + . . O 6 0 h l l x I P l x.                  ",
"            R R P P Y c l e 0 0 0 7 ; . . . $ u 5 5 4 4 + . . . X o 3 5 5 5 5 = X . . ; 7 0 0 0 e j c P I P U K                 ",
"            l H Y I Y v l e 0 0 0 0 6 O X . + 2 : 2 2 : o . . . . X : : : 2 : $ . O O ; 0 0 q 0 q x c Y I I H l                 ",
"            P I I I I I I e 0 h j 0 0 0 ; . . . . . . . . . . . . . . . X . . . . * 0 0 0 h j 0 e P U Y I I I P                 ",
"          G.I P H I I I I h e l j e 0 0 6 o o o X . . . . . . . . . . . . . @ o o ; 0 0 e j l e e P P Y P P P Y M.              ",
"        D D I H l H I I I x l l l l j 0 0 7 0 0 & . . . . . . . . . . . . o 0 0 0 0 0 h l l l l x P Y I H l c Y G l             ",
"        G D H G c I E T I x l l l l h 0 0 t e e > @ # # @ @ # # @ @ @ @ @ ; e e e 0 0 h l l l l x P Y E I c v P G c             ",
"        I H l v I W :.W I x l l l l h 0 e l l l e 0 0 0 0 0 0 0 0 0 0 0 0 e l l l r 0 h l l l l x Y Y =.! I v l v I             ",
"        H.f.c I W ! ~ E I x l D G l j f h l l l j e q 0 e r e e e e 0 0 e h l l l h e j l D G l x P T =.~ W Y v 8.              ",
"            I W :.=.:.E I D l P P l l l l l l l l l e 0 h l l l D h 0 e l l l l l l l l l P I x x P E =.=.=.! P                 ",
"            I W ~ :.:.E I H H I P D l l l l l l D G j h l l l l l j h j G G l l l l l l l P I H P P T =.=.=.W P                 ",
"            I W :.:.=.E I I I I P D l l l l l l G Y D l l l l l l l l D Y H l l l l l l l P I I I I T =.=.:.! P                 ",
"            ! W E ! =.E I I I ! W H v x c P c l G Y P H x l l l l x G P I H l D H D l D H W ! Y I I Y :.! E W W                 ",
"            =.! T ! =.E I Y Y ~ ~ I P V c Y v l H I I I c l l l x x P I Y H l H I G l H Y ~ :.T I I T :.~ T W =.                ",
"            ~ C.  B.~ E I W ~ :.~ I I P P Y P P E ~ T I P P P P P P Y T ! W H P I P P I Y ! :.! Q Y T ~ l.  J.~                 ",
"            4.    A.=.E Y ~ :.=.~ Y Y I Y Y Y I W ;.W Y Y I I I P Y Y E =.! I I Y Y Y I Y ~ :.=.~ T E ~ B.    4.                ",
"                  A.~ =.~ ~ =.:.:.=.W Y T ~ W P W :.=.~ T I I I I T ~ ~ =.! I W ~ E I W ~ ~ :.:.~ ~ ~ ~ B.                      ",
"                  A.~ :.:.:.~ :.:.:.~ I E :.! T W :.=.=.E Y I I Y T =.=.=.! Y W :.W I ! >.~ :.:.~ =.:.=.B.                      ",
"                  A.Q ~ >.~ =.=.~ :.! I E =.~ =.:.~ =.:.:.~ Y T ~ =.=.~ ~ >.~ =.:.W I ! :.=.~ :.:.=.:.Q B.                      ",
"                    k.5.=.:.>.k.k.>.~ E W :.=.~ :.=.~ >.~ >.W E ~ :.=.>.=.:.~ =.:.W E ! >.h.k.>.:.:.,.k.P.                      ",
"                      B.~ ~ ,.    5.=.~ ~ :.=.:.:.:.~ =.:.:.~ ~ :.>.~ ~ ~ :.:.=.:.:.~ =.>.    g.Q ~ k.                          ",
"                      B.=.z.A.    5.~ =.:.=.~ :.=.>.:.:.:.:.~ :.=.=.:.=.:.:.:.=.:.:.=.=.>.    K.n.:.l.                          ",
"                      B.~         4.~ =.:.:.:.~ ~ ~ :.:.~ =.>.:.:.~ :.:.:.~ ~ :.~ =.:.~ >.        ,.j.                          ",
"                        L.          C.>.:.~ h.L.l.~ ~ :.:.:.:.:.:.>.:.=.=.g.L.l.:.:.=.B.P.        P.                            ",
"                                      >.=.=.J.  P.Q =.:.~ =.~ =.:.~ :.~ Q Z.    ~ :.~                                           ",
"                                        Z.Q A.      k.:.:.=.~ :.:.~ =.g.        ~ V.                                            ",
"                                          =.A.      Z.~ :.:.:.:.:.:.~ n.      I.Q                                               ",
"                                                        g.=.~ =.~ g.                                                            ",
"                                                        N.>.>.,.:.h.                                                            ",
"                                                                                                                                ",
"                                                                                                                                ",
"                                                                                                                                "
};
