/* XPM */
static char *result[] = {
/* columns rows colors chars-per-pixel */
"64 61 177 2 ",
"   c #010001",
".  c #0A0106",
"X  c #0B040A",
"o  c #070308",
"O  c #13030D",
"+  c #1A030F",
"@  c #120611",
"#  c #1D0312",
"$  c #1A091D",
"%  c #160818",
"&  c #220415",
"*  c #27051B",
"=  c #1F0922",
"-  c #230926",
";  c #260A29",
":  c #2A0A2D",
">  c #2A0728",
",  c #350424",
"<  c #3A0426",
"1  c #3E042A",
"2  c #340729",
"3  c #2E0C33",
"4  c #310D36",
"5  c #3C0937",
"6  c #350E3A",
"7  c #390E3E",
"8  c #3F0738",
"9  c #321036",
"0  c #39103E",
"q  c #3A193D",
"w  c #44032D",
"e  c #48042F",
"r  c #4B0331",
"t  c #420638",
"y  c #400D3F",
"u  c #560139",
"i  c #5A013B",
"p  c #530236",
"a  c #3C0E41",
"s  c #3D1043",
"d  c #3F2142",
"f  c #400E41",
"g  c #430C49",
"h  c #5C0543",
"j  c #411346",
"k  c #45154C",
"l  c #48174F",
"z  c #45194B",
"x  c #4A1750",
"c  c #4C1853",
"v  c #4F1A58",
"b  c #531B5B",
"n  c #6C0247",
"m  c #6E0348",
"M  c #620040",
"N  c #73044B",
"B  c #79064F",
"V  c #7D0653",
"C  c #4B2C4D",
"Z  c #432346",
"A  c #4B304E",
"S  c #532B57",
"D  c #59335D",
"F  c #583B5C",
"G  c #571B60",
"H  c #5B1D64",
"J  c #5F1D68",
"K  c #621E6B",
"L  c #661F70",
"P  c #691F74",
"I  c #6F1E7B",
"U  c #5E2866",
"Y  c #5D3162",
"T  c #65266E",
"R  c #672072",
"E  c #6A2075",
"W  c #6E2179",
"Q  c #71237D",
"!  c #5B415D",
"~  c #5E4461",
"^  c #654A68",
"/  c #6C556E",
"(  c #6E5471",
")  c #775A7A",
"_  c #7B667D",
"`  c #820656",
"'  c #88065A",
"]  c #940661",
"[  c #9C0467",
"{  c #A5026D",
"}  c #A8036F",
"|  c #AB0471",
" . c #761E82",
".. c #762382",
"X. c #792585",
"o. c #7B2987",
"O. c #7D2D89",
"+. c #7E5084",
"@. c #7F6D82",
"#. c #83288F",
"$. c #81278C",
"%. c #81338C",
"&. c #862994",
"*. c #892A97",
"=. c #8E2B9C",
"-. c #902B9E",
";. c #883F92",
":. c #C60B83",
">. c #CE0B89",
",. c #CC0B87",
"<. c #D8088F",
"1. c #D30A8D",
"2. c #DB0792",
"3. c #EC069C",
"4. c #FC0DAA",
"5. c #8C4495",
"6. c #8F4B98",
"7. c #914E9A",
"8. c #93529C",
"9. c #95589E",
"0. c #875B8C",
"q. c #806C81",
"w. c #89698D",
"e. c #89778B",
"r. c #8D6F90",
"t. c #8F7891",
"y. c #98779B",
"u. c #9A5CA2",
"i. c #9E64A5",
"p. c #A26BA8",
"a. c #A572AB",
"s. c #A977AF",
"d. c #AC7BB1",
"f. c #938294",
"g. c #9F87A2",
"h. c #A587A8",
"j. c #A696A7",
"k. c #AE81B3",
"l. c #AD8EB1",
"z. c #B184B6",
"x. c #B48BB9",
"c. c #B992BD",
"v. c #B39FB4",
"b. c #AFA4B0",
"n. c #B2A3B4",
"m. c #BAA3BD",
"M. c #B9AEBA",
"N. c #B6AAB7",
"B. c #BAB0BB",
"V. c #BD9AC1",
"C. c #C3A4C6",
"Z. c #C7ABCA",
"A. c #C3BAC4",
"S. c #C6B3C9",
"D. c #CDB6D0",
"F. c #D3BFD4",
"G. c #CFCACF",
"H. c #C9C4CA",
"J. c #D3C2D4",
"K. c #D2CDD2",
"L. c #DBCEDC",
"P. c #D8C7D9",
"I. c #D7D3D7",
"U. c #DBD2DC",
"Y. c #DDDBDE",
"T. c #DFD4E0",
"R. c #E2DCE2",
"E. c #E1D7E2",
"W. c #E5E3E6",
"Q. c #E8E6E9",
"!.  c None",
"~. c #E7E5E8",
"^. c #EFF0EF",
"/. c #F0F4EF",
"(. c #EFF2F0",
"). c #F1F3F1",
"_. c None",
/* pixels */
"!.!.!.!.!.!.!.!.!.!.!.!.!.!.!.!.!.!.!.!.!.!.K.M.M.B.^ 6 6 6 7 6 6 7 6 F M.M.M.K.!.!.!.!.!.!.!.!.!.!.!.!.!.!.!.!.!.!.!.!.!.!.!.!.",
"!.!.!.!.!.!.!.!.!.!.!.!.!.!.!.!.!.!.!.!.^.).j.4 9 9 j l l k l l l l x j 9 9 4 e.).!.!.!.!.!.!.!.!.!.!.!.!.!.!.!.!.!.!.!.!.!.Q.!.",
"!.!.!.!.!.!.!.!.!.!.!.!.!.Q.!.!.!.!.!./.I.j._ 7 a 7 l b v b b b b v b x a 7 6 / j.G.!.!.!.!.!.!.!.!.!.!.!.!.!.!.!.!.!.!.!.!.!.!.",
"!.!.!.!.!.!.!.!.!.!.!.!.!.!.!.!.!.!.!.).N.3 7 l x l b K K K K K K K K H l x x f : j.).!.!.!.!.!.!.!.!.!.!.!.!.!.!.!.!.!.!.!.!.!.",
"!.!.!.!.!.!.!.!.!.!.!.!.!.!.!.!.!.!.I.f.) 0 l b b b H K L W W P W P K J b b b x 7 ( f.G.!.!.!.!.!.!.!.!.!.!.!.!.!.!.!.!.!.!.!.!.",
"!.!.!.!.!.!.!.!.!.!.!.!.!.!.!.!.!.^.A.9 6 l b K K K K K Q X.X.X.X...K K T J K b l 7 3 n.).!.!.!.!.!.!.!.!.!.!.!.!.!.!.!.!.!.!.!.",
"!.!.!.!.!.!.!.!.!.!.!.!.!.!.!.!.Y.e.( j l b H K E Q Q Q $.&.&.&.&.&.Q W Q P K J H l j ^ q.K./.!.!.!.!.!.!.!.!.!.!.!.!.!.!.!.!.!.",
"!.!.!.!.!.!.!.!.!.!.!.!.!.!.!.!.G.q 4 l b K K K Q X.X.X.*.-.-.-.-.*.X.X.X.Q K K K b c 6 9 A.!.!.!.!.!.!.!.!.!.!.!.!.!.!.!.!.!.!.",
"!.!.!.!.!.!.!.!.!.!.!.!.!.!.T._ ^ j k H H K P Q Q X.$.*.=.=.-.=.=.=.*.&.X.X.Q L K K H l j F ) I.!.!.!.!.!.!.!.!.!.!.!.!.!.!.!.!.",
"!.!.!.!.!.!.!.!.!.!.!.!.!.!.Y.A 3 l v K K K P X.o.X.&.=.=.=.=.=.=.=.=.&.X.X.X.W K K K v l 4 d K.!.!.!.!.!.!.!.!.!.!.Q.!.!.!.!.!.",
"!.!.!.!.!.!.!.!.!.!.!.!.!.^.Y.A 4 k c K L Q X.X.X.X.W E E E E E E E E W X.X.X.X...L K c l 6 d K.^.!.!.!.!.!.!.!.!.!.!.!.!.!.!.!.",
"!.!.!.!.!.!.!.!.!.!.!.!.!.Y.H.C 6 l v K P X. .X.X.X.R H J J H K J J J K X.Q X.X.X.W K b l 6 Z A.Y.!.!.!.!.!.!.!.!.!.!.!.!.!.!.!.",
"!.!.!.!.!.!.!.!.!.!.!.!.~./ Z z l H K X.Q K K T K L b c c c x l c c c b K K K K K Q X.K J c l Z ! Y.^.!.!.!.!.!.!.!.!.!.!.!.!.!.",
"!.!.!.!.!.!.!.!.!.!.!.!.W.! 3 l c K K X.W H H H H b c k k k k k j k k x H H H J J P ..L J b x 4 C Y.!.!.!.!.!.!.!.!.!.!.!.!.!.!.",
"!.!.!.!.!.!.!.!.!.!.!.!.!.F 4 G K K K K H l c c g 6 6 4 4 6 4 4 9 4 9 6 4 s c c l b K K K J H 6 A Y.^.!.!.!.!.!.!.!.!.!.!.!.!.!.",
"!.!.!.!.!.!.!.!.!.!.!.H.N.D 6 U K H H H b k s 6 : - - - - - - - - - - - - : 6 0 j b J H H J J 7 C b.H.!.!.Q.!.!.!.!.!.!.!.!.!.!.",
"!.!.!.!.!.!.!.!.!.!.!./ 4 k c J J c l x j 4 $                                 % 4 s x x c J J c k 6 ~ W.!.!.!.!.!.!.!.!.!.!.!.!.",
"!.!.!.!.!.!.!.!.!.!.!./ 3 c b G b l l j a t 2 & & & + +             O + & & & , t j s l x b b b x 3 ! W.!.!.!.!.!.!.!.!.!.!.!.!.",
"!.!.!.!.!.!.!.!.!.!.(./ 3 G J c l c k 3 5 i i i i i r 1 O         . 1 e i i i i i t 3 j x x c J H 4 ! !.^.!.!.!.!.!.!.!.!.!.!.!.",
"!.!.!.!.Q.!.!.!.!.M.f.D a c b c l s 7 t h ` ] | ] ` M r * # # & # * r i V ] } [ ` h t y s k l b b s S e.b.!.!.!.!.!.!.!.!.!.!.!.",
"!.!.!.!.!.!.!.!.!.@.: a x l l l z 4 5 i N | 1.4.<.| B i e w w 1 w e i N } ,.4.<.| ` i 5 4 k l l l x j : / Q.!.!.!.!.!.!.!.!.!.!.",
"!.!.!.!.!.!.!.!.^.q.3 g l l l l s % * i N | 1.4.3.2.| ' p 1 1 w 1 r ` { 1.3.4.<.| ` i > @ s c l l l j 3 / !.!.!.!.!.!.!.!.!.!.!.",
"!.!.!.!.!.!.!.!.^.q.3 s l l l l s o O u N | >.4.4.4.,.| i w 1 w 1 p { :.4.4.4.1.} ` i +   0 x x l c k 3 / Q.!.!.!.!.!.!.!.!.!.!.",
"!.!.!.!.!.!.!.n.) Y s b H c l s 4   X e i N ] :.:.:.] N r 1 w 1 1 e N ' :.:.:.{ N i e O   : 0 k c b b j S ) l.^.!.!.!.!.!.!.!.!.",
"!.!.!.!.!.!.^.f.g c c H J c l 6 :   X < e u B } } } N i e 1 1 1 w w u n { } } ` i r 1 +   - 4 k c H H x x g r.!.!.!.!.!.!.!.!.!.",
"!.!.!.!.!.!./.h.l b H b c l l 9 :     X # e u n n n p e w w O O < w w p n n N i e & .     ; 4 k x v v H G g t.^.!.!.!.!.!.!.!.!.",
"!.!.!.!.!.~.Y.y.l b K v l k k 6 : o     O , e i i u r 1 < , .   , 1 1 e u u i e , +     o ; 4 k l l v K H x w.Y.W.!.!.!.!.!.!.!.",
"!.!.!.!./.M.Y T K K K v l 7 4 4 3 3 =     o # e e w w w +       o X 1 w e e e * o     $ : 3 4 6 7 k v J J J U U j.!.!.!.!.!.!.!.",
"!.!.!.!.(.v.l b K K K v l 5 3 6 9 6 : o o   O , , , , , X         . , , , , < +     X ; 4 4 6 3 6 x b J K K G x h.^.!.!.!.!.!.!.",
"!.!.!.!.).m.H K K K K K J a 4 k k 4 3 3 =                                         % 3 3 4 k z 6 6 H J K J J K H l.).!.!.!.!.!.!.",
"!.!.!.R.A.h.K J G K K K K j 7 k k 0 6 3 ; X X X o                           X X X - 4 6 6 k l 6 0 J K K J H J J y.A.Y.!.!.!.!.!.",
"!.!.!.A.v b K b l b K K J c l l l l k 3 3 3 9 3 %                         O 3 4 3 4 4 j l l l l c J K K H l b K b l v.!.!.!.!.!.",
"!.!.^.A.b b b b b K P K T c x x l l k 3 6 0 0 7 ; @ @ @ @ @ @ O @ @ @ @ @ $ 0 0 0 6 3 k l l l l c J K P K b b H b b n.!.!.!.!.!.",
"!.!.^.S.K b x b K W X.E J c l x l l k 3 0 l l c s 3 3 3 3 9 3 3 3 3 4 4 3 0 x x l s 3 s l l l l c J L X.W K b l b H m.^.!.!.!.!.",
"!.!.!.L.h.0.v K P Q X.E J c x v b l l s s l l l j s 9 6 7 s s s s 0 4 6 s s x l l s s k c v b l c J L X...I K b +.s.J.!.!.!.!.!.",
"!.!.!.!./.C.J W X.X.X.E K c x H J x l l l l l l l l 0 4 s c l l x k 4 6 l l l l l l l l l H T x c J L X.X.X.I J l.^.^.!.!.!.!.!.",
"!.!.!.!.^.m.J W X.X.X.E K b H K H x x x l l l l v b l a k l l l l l a j b b x x l l l l c H J H G K L X.X.X.W J l.^.!.!.!.!.!.!.",
"!.!.!.!.^.m.K E X.X.X.E K K K K J x l l l l l l b T b x l l l l l x x b R b l l l c l l l H K K K K L X.X.X.W J l.!.!.!.!.!.!.!.",
"!.!.!.!.^.C.W W E Q X.E K K K W I H b x c H b l b K J G c l l l l x b H K U l v H c l b H E W K J K K X...E E I x.^.!.!.!.!.!.!.",
"!.!.!.!.^.C.X.W T Q X.E K K K X...K U x v K G x G K K K b l l l x v K K K b x b K b l H K ..X.L T J L X.Q T W ..c.^.!.!.!.!.!.!.",
"!.!.!.!.!.C. .a.J.i.X.E K Q ..X.Q K K H J K J H R ..R J H H H H H H J L ..P H J K J H J K ..X...Q K K X.9.J.d.Q c.^.!.!.!.!.!.!.",
"!.!.!.!.!.Z.%.c.).d. .L K Q X.X.X.K K K K K K K W X.E T J T K K K K K P X.Q K K K K K K K ..X.X.X.L L  .i./.C.%.c.!.!.!.!.!.!.!.",
"!.!.!.!.!.~.L.R.^.d. .X.X.X.X.X.X.X.Q K L ..W J W X.X...K K K K K K ....X.Q U E ..P K W ..X.X.X.X..... .i.!.W.L.W.!.!.!.!.!.!.!.",
"!.!.!.!.!.!.!.^.!.d. .X.X.X.X.X.X.o.Q K E X.Q K W X.X.X.P L K K R E X.X.X.Q K W X.E K Q X.X.X.X.X.X.X.X.i.!.!.!.^.!.!.!.!.!.!.!.",
"!.!.!.!.!.!.!.!.^.d.I o.X.X.X.X.X.X.Q K E X.X.Q X.X.X.X.X...K K Q X.X.X.X.X.X.X.X.W K Q X.....X.X.X.X. .i.!.!.!.!.!.!.!.!.!.!.!.",
"!.!.!.!.!.!.!.!.!.c.8.%.X.X.o.7.8.$.Q L W X.X.o.X.X.X.X.X.X.I P ..X.X.X.X.X.X.X.X.W R Q X.7.8.O.X.X.$.8.k.!.!.!.!.!.!.!.!.!.!.!.",
"!.!.!.!.!.!.!.!.!.!.Q.i. . .%.L.L.%.X.X.X.X.X.X.X.X.X.X.X.X.X.X.X.X.X.X.X.X.X.X.X.X.X.X.O.F.R.5.Q X.8.W.!.!.!.!.!.!.!.!.!.!.!.!.",
"!.!.!.!.!.!.!.!.!.!.!.i.X.u.s.R.T.%.X.X.X.X.X.X.X.X.X.X.X.X.X.X.X.X.X.X.X.X.X.X.X.X.X.X.O.J.~.d.u.o.8.~.!.!.!.!.!.!.!.!.!.!.!.!.",
"!.!.!.!.!.!.!.!.!.!.!.u.X.F.^.!.L.%. .X.X.X.X. . .X.X.X.X.X.X.X.X.X.X.X.X.X. .X.X.X.X.X.X.F.!.!.L.#.8.~.!.!.!.!.!.!.!.!.!.!.!.!.",
"!.!.!.!.!.!.!.!.!.!.!.C.z.T.!.!.R.x.p.o.X.X.7.z.8.X.X.X.o.X.X.X.X.X.X.X.X.5.z.8.X.X.X.i.z.E.^.!.R.x.c.!.!.!.!.!.!.!.!.!.!.!.!.!.",
"!.!.!.!.!.!.!.!.!.!.!.!./.!.!.!.!.^.P.o.X. .d.).z. .X.X.X.X.X.X.X.X.X.X. .p./.c...X.X.Z.).!.!.!.!.!./.!.!.!.!.!.!.!.!.!.!.!.!.!.",
"!.!.!.!.!.!.!.!.!.!.!.!.!.!.!.!.!.!.R.V.s. .d.^.F.V.7. .X.X.X.X.X.X. .5.V.D.^.c. .p.V.U.^.!.!.!.!.!.!.!.!.!.!.!.!.!.!.!.!.!.!.!.",
"!.!.!.!.!.!.!.!.!.!.!.!.!.!.!.!.!.!.!.).D.X.d.!.!.^.a. .o.X.X.X.X.X. .u.!.!.).c. .V.).!.!.!.!.!.!.!.!.!.!.!.!.!.!.!.!.!.!.!.!.!.",
"!.!.!.!.!.!.!.!.!.!.!.!.!.!.!.!.!.!.!.!.E.Z.P.!.!.!.J.Z.7.X.X.o.X.;.C.F.!.!.!.L.C.T.!.!.!.!.!.!.!.!.!.!.!.!.!.!.!.!.!.!.!.!.!.!.",
"!.!.!.!.!.!.!.!.!.!.!.!.!.!.!.!.!.!.!.!.!.!.!.!.!.!.!.!.u.o.o.o.o.7.Q.^.!.!.!.!.^.!.!.!.!.!.!.!.!.!.!.!.!.!.!.!.!.!.!.!.!.!.Q.!.",
"!.!.!.!.Q.!.!.!.!.!.!.!.!.!.!.!.!.!.!.!.!.!.!.!.!.!.!.!.L.F.F.F.F.P.!.!.!.!.!.!.!.!.!.!.!.!.!.!.!.!.!.!.!.!.!.!.!.!.!.!.!.!.!.!.",
"!.!.!.!.!.!.!.!.!.!.!.!.!.!.!.!.!.!.!.!.!.!.!.!.!.!.!.!.!.).!.^.^.!.!.!.!.!.!.!.!.!.!.!.!.!.!.!.!.!.!.!.!.!.!.!.!.!.!.!.!.!.!.!.",
"!.!.!.!.!.!.!.!.!.!.!.!.!.!.!.!.!.!.!.!.!.!.!.!.!.!.!.!.!.!.!.!.!.!.!.!.!.!.!.!.!.!.!.!.!.!.!.!.!.!.!.!.!.!.!.!.!.!.!.!.!.!.!.!.",
"_._._._._._._._._._._._._._._._._._._._._._._._._._._._._._._._._._._._._._._._._._._._._._._._._._._._._._._._._._._._._._._._.",
"_._._._._._._._._._._._._._._._._._._._._._._._._._._._._._._._._._._._._._._._._._._._._._._._._._._._._._._._._._._._._._._._.",
"_._._._._._._._._._._._._._._._._._._._._._._._._._._._._._._._._._._._._._._._._._._._._._._._._._._._._._._._._._._._._._._._."
};
