/* XPM */
static char *_6fbd6255c124278bbb5a490546f350dsMRsY4xTEgXBprrN[] = {
/* columns rows colors chars-per-pixel */
"64 64 211 2 ",
"   c None",
".  c #013603",
"X  c #063A03",
"o  c #083D03",
"O  c #0A3C0D",
"+  c #053C0A",
"@  c #0C3E15",
"#  c #0E3F1B",
"$  c #113E21",
"%  c #303238",
"&  c #084309",
"*  c #104316",
"=  c #0A680C",
"-  c #066D12",
";  c #0E7C12",
":  c #057313",
">  c #06720E",
",  c #154221",
"<  c #2B4C33",
"1  c #324C32",
"2  c #196E29",
"3  c #1C7828",
"4  c #316D36",
"5  c #3E1F48",
"6  c #3A1B45",
"7  c #3F224A",
"8  c #392E42",
"9  c #42254D",
"0  c #45284F",
"q  c #462751",
"w  c #482754",
"e  c #462851",
"r  c #4A2A54",
"t  c #4E2C5A",
"y  c #512E5D",
"u  c #4D325A",
"i  c #4D355B",
"p  c #52345C",
"a  c #543A5E",
"s  c #563361",
"d  c #593364",
"f  c #563B62",
"g  c #5B3C64",
"h  c #5B356B",
"j  c #5E3C6C",
"k  c #573368",
"l  c #5F3871",
"z  c #562E62",
"x  c #603C69",
"c  c #633773",
"v  c #633A74",
"b  c #683B77",
"n  c #663D7A",
"m  c #6B3D7C",
"M  c #703F7F",
"N  c #3E5744",
"B  c #454A56",
"V  c #525655",
"C  c #595D5A",
"Z  c #565D57",
"A  c #46574D",
"S  c #46724B",
"D  c #4F6C54",
"F  c #4E4C63",
"G  c #5C4265",
"H  c #5A4B69",
"J  c #5E5A65",
"K  c #5A4F72",
"L  c #574E71",
"P  c #654C6D",
"I  c #67506F",
"U  c #615969",
"Y  c #6B417F",
"T  c #6C4B7A",
"R  c #674772",
"E  c #6A5372",
"W  c #6F5877",
"Q  c #66507A",
"!  c #705877",
"~  c #73577C",
"^  c #735D7A",
"/  c #5C6264",
"(  c #78667D",
")  c #616261",
"_  c #0C8919",
"`  c #08941B",
"'  c #14A31D",
"]  c #09B01D",
"[  c #178225",
"{  c #0EB522",
"}  c #14C723",
"|  c #10D624",
" . c #703F80",
".. c #6B3D82",
"X. c #6F4283",
"o. c #6F4A82",
"O. c #734384",
"+. c #734A84",
"@. c #74458C",
"#. c #7A498B",
"$. c #77488C",
"%. c #695382",
"&. c #7A5E82",
"*. c #7A548A",
"=. c #7A4A92",
"-. c #7E4C9A",
";. c #7C5697",
":. c #796282",
">. c #7E7484",
",. c #82528D",
"<. c #824E9D",
"1. c #824E97",
"2. c #845394",
"3. c #8B559D",
"4. c #8E5A99",
"5. c #885798",
"6. c #925D9E",
"7. c #80618F",
"8. c #836D8A",
"9. c #816D86",
"0. c #84738B",
"q. c #8B768E",
"w. c #86758C",
"e. c #96669E",
"r. c #8D7A94",
"t. c #8D7594",
"y. c #917B96",
"u. c #927D99",
"i. c #997C9D",
"p. c #886B92",
"a. c #8651A1",
"s. c #8A53A4",
"d. c #8D56AC",
"f. c #8A59A9",
"g. c #8D5EA7",
"h. c #935BA3",
"j. c #925BAC",
"k. c #955AB5",
"l. c #975BB9",
"z. c #995CBA",
"x. c #995EB2",
"c. c #844FA0",
"v. c #9562A5",
"b. c #956EA2",
"n. c #9E6DA4",
"m. c #9C64AC",
"M. c #9867AA",
"N. c #9670A2",
"B. c #9C7AA4",
"V. c #9E64B4",
"C. c #9D61BB",
"Z. c #8E66A0",
"A. c #A26DAA",
"S. c #A067AC",
"D. c #A578AC",
"F. c #A469B2",
"G. c #A264BE",
"H. c #AA6DBA",
"J. c #A469B5",
"K. c #AB73B3",
"L. c #AD78B2",
"P. c #AD71BD",
"I. c #B176BB",
"U. c #B57DBB",
"Y. c #B17CB7",
"T. c #A667C1",
"R. c #AA6BC2",
"E. c #A769C1",
"W. c #AE70C5",
"Q. c #B375C3",
"!. c #B678C4",
"~. c #B97AC6",
"^. c #B676C9",
"/. c #BD7CCC",
"(. c #C07FCE",
"). c #C07ED0",
"_. c #928197",
"`. c #98879D",
"'. c #9D86A4",
"]. c #A582AA",
"[. c #A583AA",
"{. c #A193A6",
"}. c #A598A9",
"|. c #BA82BE",
" X c #B689BA",
".X c #AC86B2",
"XX c #BE80CB",
"oX c #BE87C2",
"OX c #C281CF",
"+X c #C181CE",
"@X c #C68DCB",
"#X c #CB93CE",
"$X c #C490C8",
"%X c #C585D0",
"&X c #C685D1",
"*X c #C482D0",
"=X c #CC8CD4",
"-X c #C887D2",
";X c #D08FD7",
":X c #CF92D2",
">X c #D291D7",
",X c #D292D6",
"<X c #D797DA",
"1X c #D696DA",
"2X c #D595D9",
"3X c #D696DA",
"4X c #D897DB",
"5X c #DA98DD",
"6X c #D999DC",
"7X c #D798DA",
"8X c #DC9AE0",
/* pixels */
"                                                                                                                                ",
"                                                                                                                                ",
"                                                                                                                                ",
"                                                                                                                                ",
"                                                                                                                                ",
"                                                                                                                                ",
"                                                                                                                                ",
"                                                                                                                                ",
"                                              w.P I E Q E I E I E I E I I P                                                     ",
"                                              E 7 q 9 7 7 9 9 9 9 9 9 9 9 7 w.                                                  ",
"                                      0.0.8.8.R h X.=.=.=.=.=.=.=.=.=.=.m h T 0.8.0.r.                                          ",
"                                      9 9 9 9 c m s.z.l.l.l.l.l.l.l.l.l.-.m h 7 7 9 a                                           ",
"                                    y.d k n X.5.h.J.R.E.R.R.R.R.T.R.R.R.V.h.1.m n s j `.                                        ",
"                                  9 y m O.k.z.^././.)././././.(././././././.W.l.d.m m w e                                       ",
"                                {.9 y @.=.C.T./.&X&X&X&X&X&X&X&X-X&X&X%X&X&X/.G.x.#.O.t e                                       ",
"                                {.9 h k.z././.>X3X3X3X3X3X3X3X3X1X1X1X1X3X7X=X/.^.l.d.y e                                       ",
"                                `.q v z.G./.OX,X<X<X<X<X<X<X<X<X<X<X<X<X<X<X;X+X/.z.k.s t                                       ",
"                            r.a j b 1.^./.,X3X7X<X<X<X<X<X<X<X<X<X<X<X<X<X<X3X3X;X/.Q.O.n G G                                   ",
"                            0.7 d m 2./.OX<X7X<X<X<X<X<X<X<X<X<X<X<X<X<X<X<X<X<X,X+X!.#.m y 7 {.                                ",
"            E W E 9.        0.7 b d.x.(.OX,X<X<X<X<X<X<X<X<X<X<X<X<X<X<X<X<X<X<X,X(.~.k.d.k 7 {.        ( E W W                 ",
"          '.7 9 9 G         0.9 Y z.G./.OX3X<X<X<X<X<X<X<X<X7X3X<X<X<X<X<X<X<X<X,X(./.z.k.h 7 }.        r 9 7 9                 ",
"        w.7.$.=.3.e.'.D.r.w.G 9 m l.G./.OX3X<X<X<X<X<X<X<X7X3X3X<X<X<X<X<X<X<X<X;X(./.C.l.h 7 Q q.u.[.D.6.4.=.=.8.w.            ",
"      ( 6 X.C.E.*XQ. .v r 7 9 9 X.l.G.(.+X3X<X<X<X<X<X<X<X<X3X6X<X<X<X<X<X<X<X<X,X+X/.C.k.j e 7 9 y b #./.).T.z.h 6             ",
"        w.;.@.3.Q.R.h.3.X.n s 9 m l.G./.+X3X<X<X<X<X<X<X<X<X7X3X<X<X<X<X<X<X<X3X,X/./.C.k.j e k n +.3.h.W.H.=.@.p.t.            ",
"            7 h l.C././.G.l.v 9 X.l.T./.*X1X5X8X5X5X5X5X7X7X3X7X<X<X3X<X<X5X5X5X2X(./.C.l.h 7 $.l.H.(./.z.d.y 9                 ",
"            E &.<.s.H.H.z.l.v 9 v f.g.b.N.].[.[.D. X$X:X7X7X7X3X<X<X#X$X X].].].].e.b.f.f.h 7 @.l.G.H.J.a.<.~ W                 ",
"                e t m O.d.l.v 9 y %.F * @ @ # * * / r..X6X7X7X7X<X3X'.r.A @ @ # @ @ $ K Q i 7 @.z.s.Y b r p                     ",
"                g g b m s.k.v 9 i %.N O O O O & & Z >.'.:X:X7X7X,X#Xu.>.N & & O O O # F L u q X.k.<.b n f P                     ",
"                    a t m O.s q 8 , @ X X X o ; ` [ 2 D B.[.3X:XB._.S 2 [ ` - o X X X $ $ 8 9 c  .c w P                         ",
"                    f r v m z q % @ O + X X & _ ' [ : S 0.'.2X:Xy.w.4 - ` ' ; X X o o O @ % q k  .c e E                         ",
"                        P t w 9 i L N . X X o ' } ' ` 2 < V  X[.N < [ ` ] } _ X o X @ F R i e r t :.                            ",
"                        P 9 9 q j ;.%.+ X X & ] | { ' : + < [.i., + _ ' { | ` X o o @ %.;.s 9 q 5 8.                            ",
"                            E 9 k +.o.J V O & = ; = = S 9.y.$XoXw.>.4 = > ; = X , C J o.@.i 9 :.}.                              ",
"                            9.5 s m #.B.p.O X . . . . ) 5X5X7X7X5X,X1 X X . X . < N.b.O.m t 9 {.                                ",
"                              0.~ h X.M.e.C V C C C C q.5X7X<X<X7X,X( Z C C C V J M.v.n h :.0.                                  ",
"                                {.9 h l.z./.OX<X6X6X7X7X7X7X<X<X  7X6X6X6X4X;X(.^.C.d.t w                                       ",
"                                {.9 k c.s.H.H.OX:X;X,X,X>X2X,X,X>X>X>X>X;X=X(.P.J.s.-.t r                                       ",
"                                {.q q e t m O.d.z.Q.(.(.+X+X(.+X+XOXOX(.H.z.s.M n r e q e                                       ",
"                                '.e t t y b m a.d.H.Q.Q.I.Q.Q.Q.Q.Q.Q.Q.J.d.1.b c t t t p                                       ",
"                            _.G o.d.d.d.<.y t y y p d p d d p s d p s s y y y r k s.d.s.s.T G                                   ",
"                            0.9 X.z.z.z.d.y e e e e e e e e e e e e e e w 0 e e d k.z.z.z.h 7 {.                                ",
"                        y.^ =.-.V.%XXX^.W.m.m.K.L.L.L.L.L.L.L.L.L.L.L.L.L.L.K.v.F.Q./.OX%Xh.-.*.^ {.                            ",
"                        I 7 =.z.^.6X2X+X*X+X+X,X5X5X5X5X7X5X7X5X6X6X7X6X7X5X;X(.+X+X+X3X7XR.z.m 5 9.                            ",
"                      _.R d h./.XX:X!.*.2.~.+X,X7X3X7X<X3X7X7X7X<X<X<X<X<X<X;X(.I.,.2.XX=XXX/.2.d T _.                          ",
"                    p 9 c b U.6X=X(.S.q p Q.(.>X7X<X<X<X<X<X<X<X<X<X<X<X<X7X;X(.F.q y I.(.,X5Xm.m h 9 P                         ",
"                    a e ,.6.+X6X+XF.5.e s Q.(.=X;X3X<X<X<X<X<X<X<X<X<X<X>X;X&X(.F.e y h.F.-X7XI.h.+.9 I                         ",
"                    p t |.6X7X6XK.m c 9 d I.(.(.(.=X7X5X<X<X3X<X<X7X<X<X=X(.(.(.F.e r b M U.5X<X6XA.9 I                         ",
"                    p r |.6X>X>XA.c h q p P.^././.=X>X>X>X>X>X,X>X>X2X>X&X(./.^.S.t e c b U.2X3X6XA.9 I                         ",
"                    p r |.<X-X*X5.0 0 0 y j.C.^.XX+X+X(.(.(.(.(.(.(.(.(.(.(.^.z.a.r e 9 e S.OX=X5XA.9 I                         ",
"                    G f |.#X(.!.4.p u 0 y d.z.^.+X/.~./././././.(./.~.!./.).Q.l.a.e e p a m.~.+X,XA.u ^                         ",
"                        ~ g d d u.    e y d.C.&X2Xm.O.3.C.C.C.C.z.C.1.#.P.,X/.l.a.e a     &.s g d 0.                            ",
"                        I 9 0 9 _.    e y d.z.=X7Xh.m =.l.k.l.k.k.k.#.m K.6XXXl.a.e g     ^ 9 e 9 0.                            ",
"                                      e y O.=.!.&XJ.s.=.c l l l c v -.a.W.=XH.#. .q f                                           ",
"                                      e w m Y H.(.R.l.@.9 9 9 9 9 e <.z.R.).m.m v 9 a                                           ",
"                                        u.x x x.R.G.l.@.9 g   _.p e <.z.T.R.3.d R `.                                            ",
"                                          a e <.l.l.l.@.9 !     g q <.z.l.l.$.9 E                                               ",
"                                          a e v.W.E.E.#.9 !     a e s.R.R.W.2.9 E                                               ",
"                                          a e U.6X&X*X4.9 !     g e S.(.=X5Xn.9 E                                               ",
"                                          f e U.6X=X&X4.9 W     G e F.&X=X5Xn.9 W                                               ",
"                                          a t |.5X3X7Xe.9 W     a e Y.7X7X5Xn.9 E                                               ",
"                                          P p Y.:X:X,Xe.r :.    P p L.,X,X,Xn.r ^                                               ",
"                                              &.j j g t.            &.g j g t.                                                  ",
"                                              E 9 9 9 r.            W 9 9 9 w.                                                  ",
"                                                                                                                                "
};
