/* XPM */
static char *_4331317551f40fbf3da4aa89c05dfa3hA2EKDE2dJp21pr6[] = {
/* columns rows colors chars-per-pixel */
"64 64 211 2 ",
"   c None",
".  c #013603",
"X  c #063A03",
"o  c #083D03",
"O  c #0A3C0D",
"+  c #053C0A",
"@  c #0C3E15",
"#  c #0E3F1B",
"$  c #113E21",
"%  c #303238",
"&  c #084309",
"*  c #104316",
"=  c #0A680C",
"-  c #066D12",
";  c #0E7C12",
":  c #057313",
">  c #06720E",
",  c #154221",
"<  c #2B4C33",
"1  c #324C32",
"2  c #196E29",
"3  c #1C7828",
"4  c #316D36",
"5  c #3E1F48",
"6  c #3A1B45",
"7  c #3F224A",
"8  c #392E42",
"9  c #42254D",
"0  c #45284F",
"q  c #462751",
"w  c #482754",
"e  c #462851",
"r  c #4A2A54",
"t  c #4E2C5A",
"y  c #512E5D",
"u  c #4D325A",
"i  c #4D355B",
"p  c #52345C",
"a  c #543A5E",
"s  c #563361",
"d  c #593364",
"f  c #563B62",
"g  c #5B3C64",
"h  c #5B356B",
"j  c #5E3C6C",
"k  c #573368",
"l  c #5F3871",
"z  c #562E62",
"x  c #603C69",
"c  c #633773",
"v  c #633A74",
"b  c #683B77",
"n  c #663D7A",
"m  c #6B3D7C",
"M  c #703F7F",
"N  c #3E5744",
"B  c #454A56",
"V  c #525655",
"C  c #595D5A",
"Z  c #565D57",
"A  c #46574D",
"S  c #46724B",
"D  c #4F6C54",
"F  c #4E4C63",
"G  c #5C4265",
"H  c #5A4B69",
"J  c #5E5A65",
"K  c #5A4F72",
"L  c #574E71",
"P  c #654C6D",
"I  c #67506F",
"U  c #615969",
"Y  c #6B417F",
"T  c #6C4B7A",
"R  c #674772",
"E  c #6A5372",
"W  c #6F5877",
"Q  c #66507A",
"!  c #705877",
"~  c #73577C",
"^  c #735D7A",
"/  c #5C6264",
"(  c #78667D",
")  c #616261",
"_  c #0C8919",
"`  c #08941B",
"'  c #14A31D",
"]  c #09B01D",
"[  c #178225",
"{  c #0EB522",
"}  c #14C723",
"|  c #10D624",
" . c #703F80",
".. c #6B3D82",
"X. c #6F4283",
"o. c #6F4A82",
"O. c #734384",
"+. c #734A84",
"@. c #74458C",
"#. c #7A498B",
"$. c #77488C",
"%. c #695382",
"&. c #7A5E82",
"*. c #7A548A",
"=. c #7A4A92",
"-. c #7E4C9A",
";. c #7C5697",
":. c #796282",
">. c #7E7484",
",. c #82528D",
"<. c #824E9D",
"1. c #824E97",
"2. c #845394",
"3. c #8B559D",
"4. c #8E5A99",
"5. c #885798",
"6. c #925D9E",
"7. c #80618F",
"8. c #836D8A",
"9. c #816D86",
"0. c #84738B",
"q. c #8B768E",
"w. c #86758C",
"e. c #96669E",
"r. c #8D7A94",
"t. c #8D7594",
"y. c #917B96",
"u. c #927D99",
"i. c #997C9D",
"p. c #886B92",
"a. c #8651A1",
"s. c #8A53A4",
"d. c #8D56AC",
"f. c #8A59A9",
"g. c #8D5EA7",
"h. c #935BA3",
"j. c #925BAC",
"k. c #955AB5",
"l. c #975BB9",
"z. c #995CBA",
"x. c #995EB2",
"c. c #844FA0",
"v. c #9562A5",
"b. c #956EA2",
"n. c #9E6DA4",
"m. c #9C64AC",
"M. c #9867AA",
"N. c #9670A2",
"B. c #9C7AA4",
"V. c #9E64B4",
"C. c #9D61BB",
"Z. c #8E66A0",
"A. c #A26DAA",
"S. c #A067AC",
"D. c #A578AC",
"F. c #A469B2",
"G. c #A264BE",
"H. c #AA6DBA",
"J. c #A469B5",
"K. c #AB73B3",
"L. c #AD78B2",
"P. c #AD71BD",
"I. c #B176BB",
"U. c #B57DBB",
"Y. c #B17CB7",
"T. c #A667C1",
"R. c #AA6BC2",
"E. c #A769C1",
"W. c #AE70C5",
"Q. c #B375C3",
"!. c #B678C4",
"~. c #B97AC6",
"^. c #B676C9",
"/. c #BD7CCC",
"(. c #C07FCE",
"). c #C07ED0",
"_. c #928197",
"`. c #98879D",
"'. c #9D86A4",
"]. c #A582AA",
"[. c #A583AA",
"{. c #A193A6",
"}. c #A598A9",
"|. c #BA82BE",
" X c #B689BA",
".X c #AC86B2",
"XX c #BE80CB",
"oX c #BE87C2",
"OX c #C281CF",
"+X c #C181CE",
"@X c #C68DCB",
"#X c #CB93CE",
"$X c #C490C8",
"%X c #C585D0",
"&X c #C685D1",
"*X c #C482D0",
"=X c #CC8CD4",
"-X c #C887D2",
";X c #D08FD7",
":X c #CF92D2",
">X c #D291D7",
",X c #D292D6",
"<X c #D797DA",
"1X c #D696DA",
"2X c #D595D9",
"3X c #D696DA",
"4X c #D897DB",
"5X c #DA98DD",
"6X c #D999DC",
"7X c #D798DA",
"8X c #DC9AE0",
/* pixels */
"                                                                                                                                ",
"                                                                                                                                ",
"                                              w.P E E I P E E P E I E I E P                                                     ",
"                                              E 7 9 9 9 9 9 q 9 9 9 9 9 q 7 w.                                                  ",
"                                      0.8.9.9.R h O.=.=.=.=.=.=.=.=.=.=.n h T 8.9.8.r.                                          ",
"                                      q q 9 9 v m a.z.l.l.l.z.l.l.l.l.l.-.m h 9 9 9 a                                           ",
"                                    y.d k n Y 5.h.J.E.R.T.R.E.E.T.R.R.R.m.h.1.m n d j `.                                        ",
"                                  9 t m  .k.z.^.(././.(./.).).(././.)./././.Q.l.d.m b r e                                       ",
"                                {.9 y @.-.C.G.OX&X&X&X&X&X&X&X&X&X*X&X*X&X&X~.T.l.#.@.t r                                       ",
"                                {.9 h k.z.~./.>X7X3X3X3X3X3X3X3X4X4X1X1X3X<X=X/.Q.z.d.y r                                       ",
"                                `.q v z.G.(.OX>X3X7X3X3X3X7X<X<X7X7X1X1X<X<X=X*X/.z.k.s r                                       ",
"                            r.a j b ,.~.(.>X3X3X7X3X7X3X7X3X<X<X7X7X5X1X<X7X3X3X=X/.Q.O.b j a                                   ",
"                            9.9 k m 2./.OX3X<X<X3X7X<X<X<X<X<X<X7X3X<X<X<X<X<X7X>XOX~.#.m y 9 {.                                ",
"            E W W 9.        9.9 v d.l.(.OX3X<X<X7X3X<X<X7X3X<X<X3X7X<X<X<X<X<X<X>X+X~.k.d.k 9 {.        ( E E E                 ",
"          {.7 9 7 G         9.9 X.l.T./.OX3X<X<X<X<X<X<X3X7X7X7X7X<X<X<X<X<X<X<X>X(./.C.k.h 9 {.        r 9 9 q                 ",
"        w.;.@.=.4.e.D.'.r.r.G 9 m l.G./.OX3X<X<X<X<X<X<X7X7X7X7X3X<X<X<X<X<X<X<X>X(.~.C.k.h 9 E r._.[.D.6.3.=.$.8.w.            ",
"      ( 6 Y C.E.*XQ. .b w 7 9 0 ..l.G./.OX3X3X7X7X7X7X7X1X7X6X7X1X6X6X1X4X1X1X1X>XXX^.C.l.h q q 7 t n #./.(.G.z.h 6             ",
"        q.;.@.3.Q.H.h.3.X.n u 0 Y l.G./.OX3X<X<X7X7X7X1X7X1X1X1X6X1X1X1X1X1X5X1X>XXXXXC.k.j 7 k n +.h.h.W.H.-.@.p.q.            ",
"            7 h l.C.(./.G.l.b 9 Y l.G.).*X4X5X5X8X8X5X5X1X1X1X1X7X7X1X1X5X5X5X5X1X/.XXC.l.h 0 O.z.G.(.^.z.k.y 9                 ",
"            E *.<.a.H.H.z.l.c 9 n f.g.b.b.[.[.[.[.oXoX:X7X1X1X1X7X7X@X$X X[.[.[.[.b.b.f.f.k 7 @.z.G.P.J.<.<.~ !                 ",
"                e t m O.d.l.b 9 f %.F # # @ @ @ * / r..X7X7X7X7X1X7X'.t.A * * # $ @ $ L Q t q @.z.s.M b r p                     ",
"                g g b m s.k.c 9 i L B O O O + * & C >.'.:X,X3X7X:X:X_.>.N & & + @ + # F L y 9 O.k.<.b b f P                     ",
"                    f t m O.s q % , @ X X X o ; ` 3 3 D u.[.3X:X'.r.S 2 [ ` > X X X + # $ 8 9 c  .c w P                         ",
"                    f r c m y q % @ O X o o & _ ' _ - S w.B.3X:Xr.w.4 - _ ' ; X X X X @ @ % q h M c e E                         ",
"                        P t r q i K B O o o o ' } ' ` 3 < Z  X[.N < 3 ` ] } _ o X X O H K u q r t :.                            ",
"                        P 9 q 9 G ;.K X o o o ] | { ' : . 1 [.i., + _ ' { | ` o X . @ %.;.p 9 9 5 9.                            ",
"                            I 9 h +.T J V O X > ; = = S 9.u.$X X0.>.4 = > ; = o * J J o.+.y 9 ( }.                              ",
"                            9.7 z ..*.n.p.O X . . . . U 8X5X5X7X4X3X1 . . . X X < N.N.O.m y 9 {.                                ",
"                              0.~ h Y M.Z.C V Z Z Z Z q.5X<X3X7X7X7X( C C C Z V U M.v.n h :.0.                                  ",
"                                {.9 h l.C./.*X3X6X6X5X4X<X<X3X3X  7X6X7X<X5X;X(.~.z.d.y r                                       ",
"                                {.9 k c.d.H.P.OX=X:X>X>X>X>X>X>X,X,X>X>X=X=X(.P.J.s.-.t r                                       ",
"                                {.9 e e t m O.d.C.Q.*X(.OXOXOXOXOXOXOXOXH.z.s.M n r e 0 r                                       ",
"                                '.r t t t b m s.d.H.!.Q.Q.Q.Q.Q.I.Q.Q.!.J.d.<.b v t t t t                                       ",
"                            _.g o.d.d.d.<.y r y y z p p d p d p s s s s y y y r h s.d.s.s.T G                                   ",
"                            9.9 Y z.z.z.d.t r 0 w e e e e e r e e e e e q w q 9 k k.k.k.l.h 9 {.                                ",
"                        r.^ *.<.V.%X/.^.Q.S.m.K.L.L.L.L.L.L.L.L.L.L.L.L.L.L.D.m.F.Q.^.@X*Xj.-.*.^ {.                            ",
"                        P 5 =.z.~.6X2X*X(.(.*X>X5X7X5X5X7X5X5X7X5X7X5X5X7X5X;X(.OXOXOX7X7XR.l.m 5 9.                            ",
"                      _.R d h./.XX=X!.*.2.~.(.>X<X<X7X7X<X<X<X<X7X7X7X<X<X<X;X(.P.,.2.+X=XXX/.2.d T _.                          ",
"                    p 9 c m U.5X=X*Xm.0 p Q.(.>X<X<X<X<X<X<X<X<X7X<X<X<X<X7X=X(.F.r t I.OX:X6XS.m h 9 P                         ",
"                    p r ,.6.+X7X+XF.2.9 s I.(.=X;X3X<X<X<X<X<X<X<X<X<X<X>X;X-X).F.r t h.F.-X7XI.h.+.9 P                         ",
"                    p r |.5X<X7XK.m c e p Q.(.(.(.=X<X<X<X<X<X<X<X7X<X7X-X(.(.(.F.r w b M ~.7X<X5XA.9 I                         ",
"                    a r |.5X2X>XA.v h 0 p P.^.(.(.-X>X>X>X>X>X>X>X>X>X>X-X(./.^.S.r w c b U.2X2X5XA.9 I                         ",
"                    p t |.7X-XOX2.9 e 0 z d.z.~.(.(.(.(.OX(.(.(.(.(.*XOX(.(.Q.z.<.r e q r S.).=X5XA.9 P                         ",
"                    P f  X=XXX~.4.p u 0 y d.l./.(./.~././././././././.~.(.(.W.l.3.r e p p M.~.@X:XD.p ^                         ",
"                        ~ g d s y.    0 y d.C.&X3Xm.+.3.G.z.G.z.z.C.1.#.K.2X/.l.c.q a     &.s d d 0.                            ",
"                        P 0 e 9 _.    r y d.C.-X5Xh.m =.l.l.k.k.l.k.@.m K.6X/.l.c.w a     ^ 9 r 9 9.                            ",
"                                      r r @.=.!.&XJ.s.=.h v l l c v -.s.H.=XH.=...w a                                           ",
"                                      w w b Y P.(.E.l.@.9 9 9 9 9 0 <.l.W.(.S.m v 9 a                                           ",
"                                        _.x h x.R.G.z.@.9 G   _.u e <.z.T.R.3.p R `.                                            ",
"                                          f q c.l.k.l.@.9 !     g e <.z.l.l.#.9 W                                               ",
"                                          a r v.W.E.E.=.9 !     g e a.E.E.R.2.9 E                                               ",
"                                          f r U.7X&XOX4.9 !     f e F.*X=X5XA.9 W                                               ",
"                                          a r |.5X-X-X4.9 !     G r A.*X;X7XA.9 E                                               ",
"                                          a r U.5X7X6Xe.9 !     a e Y.5X2X7Xe.0 E                                               ",
"                                          G p Y.,X,X,Xe.r (     P p L.>X,X,Xn.u ^                                               ",
"                                              &.g x g t.            &.j x h q.                                                  ",
"                                              E 9 0 7 r.            W 9 9 9 w.                                                  ",
"                                                                                                                                ",
"                                                                                                                                ",
"                                                                                                                                ",
"                                                                                                                                ",
"                                                                                                                                ",
"                                                                                                                                ",
"                                                                                                                                "
};
