/* XPM */
static char *_a75e80cfb384c08b6662855f6378940az84TRrDlzqHuvFA[] = {
/* columns rows colors chars-per-pixel */
"64 64 201 2 ",
"   c None",
".  c #0F3506",
"X  c #113609",
"o  c #163A0E",
"O  c #163B14",
"+  c #1A3D14",
"@  c #1C3D1C",
"#  c #103710",
"$  c #1F3E21",
"%  c #223E25",
"&  c #32313A",
"*  c #1B4419",
"=  c #194010",
"-  c #2A621E",
";  c #254223",
":  c #344B36",
">  c #30462D",
",  c #2E6B23",
"<  c #316D24",
"1  c #367828",
"2  c #386C32",
"3  c #3D7934",
"4  c #41503D",
"5  c #406739",
"6  c #361E43",
"7  c #3A2246",
"8  c #3D264A",
"9  c #3F284C",
"0  c #382F42",
"q  c #412A4E",
"w  c #442C52",
"e  c #482F57",
"r  c #492E59",
"t  c #493356",
"y  c #4C325B",
"u  c #4E395B",
"i  c #473355",
"p  c #51365F",
"a  c #523D5D",
"s  c #4F3A62",
"d  c #533563",
"f  c #553B64",
"g  c #593D66",
"h  c #563768",
"j  c #56396A",
"k  c #5A3B6C",
"l  c #5E3D72",
"z  c #613E75",
"x  c #643F78",
"c  c #465649",
"v  c #474A56",
"b  c #535655",
"n  c #5B5D5A",
"m  c #535B56",
"M  c #496D45",
"N  c #4F704C",
"B  c #587258",
"V  c #57635A",
"C  c #4E4D62",
"Z  c #554160",
"A  c #5A4665",
"S  c #574D69",
"D  c #5B5569",
"F  c #5B5071",
"G  c #5F4175",
"H  c #614E6C",
"J  c #61466F",
"K  c #64526E",
"L  c #605A68",
"P  c #65417A",
"I  c #69447D",
"U  c #654A77",
"Y  c #704D7F",
"T  c #675571",
"R  c #695772",
"E  c #6C5A75",
"W  c #6F5C79",
"Q  c #64537B",
"!  c #725B7C",
"~  c #5E6264",
"^  c #73637C",
"/  c #786E79",
"(  c #626261",
")  c #3D862F",
"_  c #3E8532",
"`  c #408B2E",
"'  c #418F33",
"]  c #439233",
"[  c #4A9E38",
"{  c #4BA138",
"}  c #51AC3C",
"|  c #53B03E",
" . c #58BA41",
".. c #5CC344",
"X. c #64D249",
"o. c #6B4682",
"O. c #6C4A84",
"+. c #6E4989",
"@. c #724B86",
"#. c #724C8E",
"$. c #6C5680",
"%. c #76538C",
"&. c #7A538B",
"*. c #7A598B",
"=. c #774E93",
"-. c #7A5394",
";. c #7F5991",
":. c #7D549B",
">. c #765692",
",. c #766281",
"<. c #7E6F86",
"1. c #7C658C",
"2. c #7E7285",
"3. c #7F7188",
"4. c #835C95",
"5. c #845A9C",
"6. c #895E9D",
"7. c #82579D",
"8. c #82748A",
"9. c #86798E",
"0. c #8B788E",
"q. c #8B629B",
"w. c #886C99",
"e. c #926B9C",
"r. c #8B7C93",
"t. c #8C7697",
"y. c #90729F",
"u. c #957F9D",
"i. c #806B8D",
"p. c #8156A1",
"a. c #835AA5",
"s. c #865BA9",
"d. c #895DAC",
"f. c #8D5FB2",
"g. c #8D63A3",
"h. c #8A67A5",
"j. c #956CA3",
"k. c #9164AC",
"l. c #956AAA",
"z. c #9A6DAD",
"x. c #996EA7",
"c. c #9A72A5",
"v. c #9875A7",
"b. c #8F60B4",
"n. c #9264B6",
"m. c #9768B1",
"M. c #9B6CB3",
"N. c #9565B9",
"B. c #9C6CBB",
"V. c #9F70BD",
"C. c #A57BAF",
"Z. c #A176AE",
"A. c #A06FBD",
"S. c #A272B5",
"D. c #A97DB4",
"F. c #A473BC",
"G. c #AA7ABD",
"H. c #A67DB0",
"J. c #A574C1",
"K. c #AD7BC4",
"L. c #A877C2",
"P. c #B17FC6",
"I. c #8E8296",
"U. c #95889C",
"Y. c #97879F",
"T. c #9C83A6",
"R. c #9B8AA5",
"E. c #9F94A5",
"W. c #A184A9",
"Q. c #A486AB",
"!. c #AD85B6",
"~. c #B184BC",
"^. c #B38EBC",
"/. c #A399A8",
"(. c #B483C5",
"). c #B582C9",
"_. c #B582C9",
"`. c #B683CA",
"'. c #B885CB",
"]. c #B985CC",
"[. c #BB89CC",
"{. c #BD8BCD",
"}. c #B888C6",
"|. c #BC93C4",
" X c #C08ECF",
".X c #C495CD",
"XX c #C698CF",
"oX c #C28FD0",
"OX c #C593D1",
"+X c #C895D3",
"@X c #C896D4",
"#X c #CB99D5",
"$X c #CD9BD6",
"%X c #CC9AD6",
"&X c #CD9BD6",
"*X c #CD9BD6",
"=X c #CF9DD8",
"-X c #C798D0",
";X c #D09CD9",
":X c #D09DD9",
">X c #D09ED7",
/* pixels */
"                                                                                                                                ",
"                                                                                                                                ",
"                                                                                                                                ",
"                                                                                                                                ",
"                                                                                                                                ",
"                                              8.K K T T T K K K K K K K K H                                                     ",
"                                              T 8 8 8 8 8 8 8 8 8 9 8 q q 7 8.                                                  ",
"                                      8.3.8.<.G j I =.+.#.#.#.=.#.#.#.#.P h Q 8.8.8.r.                                          ",
"                                      q 8 8 8 l x p.N.f.f.n.f.n.b.f.N.f.=.P d 7 8 8 u                                           ",
"                                    r.d d z I ;.6.m.B.A.A.A.B.A.B.F.A.A.l.a.&.I l d g Y.                                        ",
"                                  8 r x o.d.n.K.).).).).).).).)._.`._._.`.`.J.b.a.P z e q                                       ",
"                                E.8 p +.=.n.B.(.[.[.[.[.[.[.[.'.[.[.[.].[.[.K.N.k.#.o.e w                                       ",
"                                E.8 j d.n.P.).+X&X&X&X&X*X*X*X*X%X%X#X=X#X$XOX).L.n.s.y q                                       ",
"                                U.w k n.N.).[.@X&X&X%X%X*X*X*X*X%X%X$X$X$X$XOX[.P.N.d.d t                                       ",
"                            r.u g z &.K.).+X%X%X$X$X%X%X*X*X*X*X=X%X=X#X$X$X#X#XOXP.L.I z g a                                   ",
"                            2.8 d I -.).'.#X$X$X$X$X$X%X*X*X*X*X%X&X#X=X$X$X$X$X+X).P.@.P r 8 E.                                ",
"            R R T <.        2.7 x a.n.(.'.#X%X%X%X%X>X*X*X*X*X*X$X$X$X$X$X$X$X$X@X_.P.k.p.f 9 E.        W R R R                 ",
"          R.7 9 8 A         3.8 I b.N.).'.#X$X$X%X>X*X*X*X*X*X*X$X$X$X$X$X$X$X$X@X_.P.n.f.j 8 E.        i 8 9 9                 ",
"        3.*.+.%.4.q.T.T.r.9.A 8 P b.N.).'.#X$X$X%X%X%X%X*X*X%X*X$X$X$X$X$X$X$X$X@X_.K.n.b.j 9 Q 8.r.T.T.6.4.#.+.i.8.            ",
"      ^ 7 o.N.B.].L.o.l w 7 9 q P b.B.).'.#X$X$X%X>X%X>X*X*X%X>X$X$X$X$X$X$X$X%X@X_.(.n.f.j 9 9 8 e z #.).).B.b.j 6             ",
"        9.1.+.:.J.F.6.4.o.G y 9 P b.N._.'.#X%X%X%X%X%X%X$X$X*X*X$X$X$X$X=X%X$X%X@X`.P.n.b.j 8 s P O.5.g.F.A.-.+.i.9.            ",
"            7 j b.n.).).N.b.l 9 P b.B.`.[.%X:X:X:X$X>X%X$X*X*X*X$X$X=X=X:X:X:X:X@X`._.N.b.j 8 O.n.B.].P.N.d.r 8                 ",
"            R W :.7.S.S.n.b.l 9 G s.h.w.c.T.W.W.W.^.|..X$X$X*X*X$X%X.X|.!.W.W.T.T.y.h.h.s.j 8 O.b.n.S.M.:.-.W E                 ",
"                w e P I s.b.l 8 s $.C @ @ @ @ @ @ ~ r.Q.>X$X*X*X$X#XT.9.c @ @ $ @ @ $ F F y 9 O.n.p.I z q p                     ",
"                Z g l P p.d.l 8 u F v * O O O * * V 2.R.-X-X;X*XXX.Xu.2.c * * * + O $ C S t q o.f.=.z J a H                     ",
"                    a e P o.p q & $ @ # + o + 1 ] 3 2 B r.T.*X.XY.r.N 2 _ _ < O o o + $ % 0 q j o.l w K                         ",
"                    a w l P y q & * O # o o = ) { 1 < B 8.Y.*X.Xr.2.5 , ) { 1 o o o o O @ 0 9 d x k w K                         ",
"                        J r w 9 u F v O o o = { ..{ ' 3 : m !.W.c : _ ' } ..) o o o @ S F i 9 e r ,.                            ",
"                        H 8 q q Z >.D o o o = } X. .[ < # : W.u.; + ) {  .X.] X o X @ Q >.d q q 7 3.                            ",
"                            K 8 s +.Q D b + o < 1 , - N 8.r.|.^.9./ 5 - < ) - o ; n D Q O.y 9 ,./.                              ",
"                            <.7 s I @.v.i.@ X X X X . ( ;X;X;X;X:X#X4 . X X X . > v.e.Y P i 7 E.                                ",
"                              8.$.j I h.e.n b n n n n 0.;X%X%X%X$X#X/ n n n m m L h.h.G j ,.8.                                  ",
"                                E.8 h f.n.).'.+X:X$X$X$X%X;X%X%X  $X$X=X=X=X+X'.P.N.s.y w                                       ",
"                                E.8 d :.a.S.F.'..X+X+X+X+X+X+X+X@X+X+X+XOX{.(.F.M.:.=.r w                                       ",
"                                E.q q w e P o.d.b.J.).'.'.'.].).'.'.'.).F.n.7.I G w w w w                                       ",
"                                R.e t w y z x :.s.B.G.G.G.G.G.G.G.G.G.G.m.s.=.P k r e y y                                       ",
"                            I.Z Y p.s.p.:.r e y y y d a p d p a p p p d y y r w d :.s.p.p.U Z                                   ",
"                            2.8 P b.b.n.s.r q q q w q q q q q q q q q w w w w 9 f b.b.b.b.j 8 E.                                ",
"                        r.W %.=.m.{.'.L.L.l.j.Z.C.C.C.C.C.C.C.C.C.C.C.C.C.C.v.l.m.L.K.'.[.g.=.*.W E.                            ",
"                        H 7 =.b.(.:X@X'.`.`.[.@X:X$X:X:X>X%X>X>X=X=X=X=X=X:XOX`.`.`.[.%X%XV.f.x 7 2.                            ",
"                      r.J d g.(.).{.G.&.;.K.).+X%X%X%X%X%X%X%X>X$X$X$X$X%X&XoXP.G.&.4.(. X).P.;.d Q I.                          ",
"                    u 8 z P D.:X{.'.l.9 u G.`.+X>X%X%X>X%X>X%X%X$X$X$X$X%X;XOX`.z.w y S.].OX>Xj.x j 8 H                         ",
"                    a q &.q.~.;X}.M.4.q p G.`..XOX@X$X%X%X%X%X*X$X$X$X$X#XOX X`.z.w e q.z. X;XD.6.Y 8 K                         ",
"                    a e ~.>X;X>Xv.o.k q p G.].P.).OX>X%X%X>X%X>X$X$X$X$XoXP.P.`.z.w w x I ~.>X%X>Xc.8 K                         ",
"                    a w ~.;X@X%Xx.l j q y F.K.P.).oX@X@X@X#X@X@X#X@X+X+X{.`.P.P.l.w w k z D.@X%X>Xe.q K                         ",
"                    u w ~.>X X'.4.q q q y d.N.K.).).].).`.`.`.`.).'.`.`.`.).J.n.7.w q q w l.]..X;XZ.q H                         ",
"                    A a !..X(.G.4.t t q y s.n.K.[.P.K.K.P.).P.P.P.).P.K.).].F.b.7.w q u a e.K.`.-Xc.t E                         ",
"                        ! p f d r.    q y a.n.[.@Xj.@.7.N.n.n.n.n.n.-.@.H.#XP.n.:.w u     *.a f f 8.                            ",
"                        K 9 q 8 I.    q u s.n. X$Xq.x =.f.f.f.f.f.f.+.x Z.:X).n.:.w a     ^ 9 q q 8.                            ",
"                                      w r o.=.G.{.M.7.#.k k k l k l =.p.F.[.S.#.I q a                                           ",
"                                      q w z I S.'.B.n.o.8 q 8 8 8 w :.f.F.[.l.P l 8 u                                           ",
"                                        r.k j k.F.N.b.+.q Z   I.t q :.b.N.J.7.d J U.                                            ",
"                                          a q :.f.f.b.+.8 E     Z w =.f.f.b.+.8 T                                               ",
"                                          a w g.J.B.B.%.8 E     Z w a.B.B.J.;.8 T                                               ",
"                                          a w !.:X{.`.4.8 E     a w l.`..X;Xj.q T                                               ",
"                                          a w ~.:XoX].6.8 E     Z w z.[.+X>Xj.8 T                                               ",
"                                          a q !.>X%X%Xe.8 E     Z w D.;X%X>Xj.8 T                                               ",
"                                          A p !..X.X+Xe.t ^     A u C..X.X+Xy.t W                                               ",
"                                              ! g g f r.            ,.g g g 0.                                                  ",
"                                              T 8 q 8 r.            E q q 8 8.                                                  ",
"                                                                                                                                ",
"                                                                                                                                ",
"                                                                                                                                ",
"                                                                                                                                "
};
