/* XPM */
static char *_bdc92db8fcd438af3b0a19b9f7d6e665pHEZnVKilPlLzgY[] = {
/* columns rows colors chars-per-pixel */
"64 64 3 1 ",
"  c #BBB8D0",
". c #B5A9C9",
"X c white",
/* pixels */
"                                ................................",
"                                ................................",
"                                ................................",
"                                ................................",
"                                ................................",
"                                ................................",
"                                ................................",
"                                ................................",
"                                ................................",
"                                ................................",
"                                ................................",
"                                ................................",
"                                ................................",
"                                ................................",
"                                ................................",
"                                ................................",
"                                ................................",
"                                ................................",
"                                ................................",
"                                ................................",
"                                ................................",
"                                ................................",
"                                ................................",
"                                ................................",
"                                ................................",
"                                ................................",
"                                ................................",
"                                ................................",
"                                ................................",
"                                ................................",
"                                ................................",
"                                ................................",
"................................                                ",
"................................                                ",
"................................                                ",
"................................                                ",
"................................                                ",
"................................                                ",
"................................                                ",
"................................                                ",
"................................                                ",
"................................                                ",
"................................                                ",
"................................                                ",
"................................                                ",
"................................                                ",
"................................                                ",
"................................                                ",
"................................                                ",
"................................                                ",
"................................                                ",
"................................                                ",
"................................                                ",
"................................                                ",
"................................                                ",
"................................                                ",
"................................                                ",
"................................                                ",
"................................                                ",
"................................                                ",
"................................                                ",
"................................                                ",
"................................                                ",
"................................                                "
};
