/* XPM */
static char *_8348eda71734d32fd958d888dd7df16lFgjMGQtxgKSv7By[] = {
/* columns rows colors chars-per-pixel */
"64 64 119 2 ",
"   c #714D2D",
".  c #634537",
"X  c #694532",
"o  c #6D4833",
"O  c #65433C",
"+  c #704B31",
"@  c #3B1D4B",
"#  c #3F2343",
"$  c #411F4C",
"%  c #412346",
"&  c #412349",
"*  c #55344C",
"=  c #5B324D",
"-  c #49235A",
";  c #4E295F",
":  c #532272",
">  c #653079",
",  c #733470",
"<  c #78464E",
"1  c #835A41",
"2  c #925C4F",
"3  c #9E6E52",
"4  c #A57154",
"5  c #A97456",
"6  c #B3775C",
"7  c #B47A5E",
"8  c #B37F60",
"9  c #B97D60",
"0  c #B58361",
"q  c #B98364",
"w  c #B58E66",
"e  c #BB8C67",
"r  c #BD8D69",
"t  c #B69067",
"y  c #B79068",
"u  c #BC946B",
"i  c #BF986E",
"p  c #BF9C73",
"a  c #C2936D",
"s  c #C0986F",
"d  c #C49770",
"f  c #C59C72",
"g  c #C89F75",
"h  c #C79F7A",
"j  c #C7A075",
"k  c #C9A076",
"l  c #CBA57B",
"z  c #CDA97E",
"x  c #612785",
"c  c #672B88",
"v  c #752F92",
"b  c #7A3293",
"n  c #7F3A96",
"m  c #8D3B8D",
"M  c #803394",
"N  c #823C97",
"B  c #8F3A98",
"V  c #923C99",
"C  c #9A3F9C",
"Z  c #864197",
"A  c #89429A",
"S  c #924696",
"D  c #91449C",
"F  c #9B429C",
"G  c #9C4BA1",
"H  c #A758A4",
"J  c #AC5AA6",
"K  c #AE50A9",
"L  c #B453AC",
"P  c #B15BA9",
"I  c #BA5CAD",
"U  c #BF61AF",
"Y  c #C15FB1",
"T  c #C361B1",
"R  c #CA66B6",
"E  c #CC6DB4",
"W  c #CD67B8",
"Q  c #CE68B8",
"!  c #D16DB6",
"~  c #D26DB9",
"^  c #CE70B4",
"/  c #D371B7",
"(  c #D774B9",
")  c #DA76B9",
"_  c #DC79BA",
"`  c #E07BBC",
"'  c #E17CBC",
"]  c #E27DBC",
"[  c #E37EBD",
"{  c #D1AF84",
"}  c #CFB085",
"|  c #D2B186",
" . c #D5B68B",
".. c #D6B98D",
"X. c #D7BC90",
"o. c #DF80BB",
"O. c #DF81BB",
"+. c #E084BB",
"@. c #E187BB",
"#. c #E185BC",
"$. c #E38BBC",
"%. c #E48BBC",
"&. c #E38DBC",
"*. c #E58EBD",
"=. c #E591BD",
"-. c #E690BD",
";. c #E792BD",
":. c #E795BD",
">. c #E99ABE",
",. c #EA9CBE",
"<. c #EDA2BF",
"1. c #EFA6BF",
"2. c #DAC297",
"3. c #DDC498",
"4. c #E58BC0",
"5. c #E78EC0",
"6. c #E88EC0",
"7. c #E990C0",
"8. c #EFA7C0",
/* pixels */
"4.7.7.6.;.6.5.7.7.5.;.5.6.6.6.6.*.*.6.6.6.7.5.6.6.5.6.6.6.7.6.6.7.6.6.7.7.7.6.7.6.5.7.;.5.6.6.6.7.6.6.7.6.6.6.*.7.7.7.5.7.7.5.5.",
"( _ O.O._ _ O._ _ _ _ _ _ _ _ _ _ _ _ _ _ _ _ _ _ _ _ _ _ _ _ _ _ _ _ _ _ _ O._ ) _ _ _ _ _ _ _ _ _ _ _ _ _ _ _ _ _ _ O._ _ O.O.",
"( %.>.>.@.O.:.$.( _ _ _ _ _ _ ( ) _ _ _ _ ) _ _ _ _ _ ( ( _ _ _ _ _ _ ) _ &.:.O.( ) _ _ _ ) _ ( _ _ _ ( _ _ ( _ ( ) %.;.O.@.>.,.",
"( ;.1.8.;._ &.@._ _ _ _ _ _ _ _ _ _ _ _ _ _ _ _ _ _ _ _ _ _ _ _ _ _ _ ( _ O.;._ ) ) _ _ _ _ _ _ _ _ _ _ _ _ _ _ _ ` $.&._ *.1.8.",
"( *.<.<.*._ _ O.( _ _ _ _ _ ) _ _ _ _ _ _ _ _ _ _ _ _ _ _ _ _ _ _ ) _ _ _ _ O._ ( _ _ _ _ _ _ _ _ _ _ _ _ _ _ _ _ ) _ _ _ ;.1.1.",
"( #.*.*.O._ ) _ ) R ! _ _ _ _ _ _ _ ) _ _ _ _ _ _ _ _ _ _ _ _ _ / R ! _ _ ( _ $.;.&._ _ ) _ _ _ _ _ _ _ _ _ _ ] ) R / ( _ O.&.&.",
"( _ ( ! / _ _ _ / L T _ _ ) _ _ _ _ _ _ _ _ _ _ ( _ _ / / _ _ _ / L T _ _ _ O.,.1.,.O.) _ _ _ _ _ _ ( ~ ( ( E / / L T _ _ _ _ ( ",
"( ] ( L T _ _ ] / L T _ _ _ _ _ _ ) _ _ ) ) ) _ _ _ / L T _ _ _ / L T _ _ ( O.>.<.>.O.) _ ) ) _ _ _ ( L T ( I R / L T _ _ _ _ _ ",
"( #.^ F P _ ] ] E F J _ O._ _ _ _ ) _ _ ( T W _ _ _ ^ F P ` ] ] / F U ) _ _ _ $.#.@._ _ ( T Q _ _ _ ^ F P ) ! ) E F P _ _ _ _ _ ",
"( _ ^ Z G ! ~ ~ U Z H ) E ( _ E ( _ _ _ ( L T ( / / E Z G ! ~ ~ U N H _ _ _ ) ! / _ _ _ ~ L T _ _ _ ^ Z G ! ~ ) U Z H ( / / ( / ",
"( #.^ A M F F F V b J ( Y E / K Y _ _ _ ! L U ( T E / A M F C F A b H _ ] _ ! K Y _ ` ` / K U _ _ @.! A M F F F B b P ( T E / L ",
") ] ! A : % % % - c U ( ( _ E D J _ _ ] E D J _ / _ ! A : % % % - c P _ _ ] E D J _ _ ` E D J _ _ ] / A : % % % - c J O.( _ ^ A ",
"Y ~ I > =   +   O ; S R W Q I n H _ _ ` E A F R Q ~ I > =   +   O ; S R R W I N H ) R / E Z F E R W I > =   +   O ; A W Q Q I n ",
"C C m = 1 7 9 9 4 O , C F F B b P _ _ @.^ A b C F C m = 1 7 7 9 4 . , C C C B b P / Y R ^ Z b F C F m = 1 7 9 9 4 . , C C F B v ",
"& @ = 2 q d f f u 4 < $ @ % - c P _ _ _ ^ Z : % @ @ = 2 0 g f f a 4 < $ $ % - c P _ ) _ / Z : % & @ = 2 7 f f f a 4 < $ # % - x ",
"o X 1 9 g k g k g a 3 o o   O ; S W Q Q I > * +   X 1 0 g k k k g a 3 o o   O ; S R Q Q I > *   o X 1 0 g g l k g a 3 o o   O - ",
"8 9 9 f l g g g k k u 7 7 7 4 O , C C C m = 1 7 7 7 q d k g g g g g a 7 7 7 5 . , C C C m = 1 7 7 9 9 f j j g g j k a 6 7 7 5 X ",
"a d f g g g g g k k f d d g a 5 < $ $ @ = 2 0 f f f f g k g g g g g f f d f a 5 < $ $ @ = 2 q f s d f g g g g g k k g s a f a 5 ",
"f l k g g g g g k k k k k k k a 3 o X X 1 0 g g k k j j k g g g g g g k k k k a 3 o o X 1 0 f k k k h g g g g k k g k j g l f d ",
"d h g g g f f g j s j g g k k k a 6 6 6 9 f k g j j j g g g g f g g g g g k k k a 6 7 6 q f j g k g g g f g g g g f g g g g k k ",
"g j j i u u u u u u u a g k j k g d a a d g k g j j j a u u u u u u u a k k k k s a a a a k j g k k g u u u u u u u u s g g k k ",
"s g f y w w y y y y y u s g g k g k k k g k k g g g f y t t t t w w t u g s s k g g k k k k k k g g g y y y y y y y w y f f g g ",
"u u u t t y y y y y w y y u u k k k j k k k k g u y u t t t t t y y t t u y s s l j k k j k g g u u u t t t t y y y w y y u a g ",
"w w y s s f d d s s s s y w y u s a u i u a u a t w t a f s s s s s s s y t y u a a s a i a u u w w w a s f s s s s f s y w y y ",
"e s s j k j j j j g j g i u u y w t t w y y w y u a s j k k k g j k j j i u u t w t w w t w w y u u u g k g k k k k j j i u u t ",
"a j g g g k g g g g g g g j s u y y u y y u y u s k g g g g g g g g g f g g g u y u y u y y y u g j g g g g g g g g g f g g g u ",
"g l g u u u i u s u u u j k k s s g s s g s s k k j g i u i i u u i u i j j g s s g k s s g s g g j g i u u u i u i u i g j g s ",
"u s u i s u i u i u s s a i s g k k k k k k k k s i i u u i i u s a i i s u s g k k k k k k k k s u i i i u i u s a i i i i s j ",
"w u u g g g k j j j k g u y u g g g s j s k s s u y u k k k k g k j g g u t u d f g s s s g j s u y u k k g k g k k g g u t u s ",
"a g g g g k j k j j k g g g s u y u u u u u y u s g s g k k k j j j j g g g f u y u u u u y u u s j g k k k k k k j j g g g f u ",
"s j k k g g g g g g g g g k g i a i i u u s i s k k k g g g g g g g g g j j j i i u u i s s u s g k g g g g g g g g g g j j j s ",
"g k j j k k k g j j k j g g g g k k k j k k k g k j g k k k j k j k j k j j j j k k k k k k k g g g g k g k k k g k j j j g g j ",
"g j k k j j k k k k k k g g g g j k j k g k j k k j j j j k k k k g g g g g g k k j k k j k k k g g g k k k j j k k j j j j g k ",
"g j g s s i s s s s s s g k j g g g g g g g g g k j k s i s s s s s s s g k k g g g g g g g g k k k k s i i s s s i s s j k k g ",
"a k g y t t t t t t y y s g g g k g j k j k j g g g f y t t t t w y w u s g g g k j j k g k j k s g s y t t t t t w w y s g g g ",
"y u y y w t t t t t y y y y u g j k g k j k g g u y y t t t t t y y w y y u u s k j k k j k k s a u u y t t t t t t t t u y u g ",
"w w w a u a i s u u s u y w t s s s s s s s s i y w y a s s a s u i s a y w y u s s s i s s s s t t y i s s s a u u s u w w y a ",
"w w u s g g g s g g k s y w y y y y u u y y u u w w u s k s g s g g j s u w y y y y u u u u y y t t y s g g g s g g g f y w t u ",
"u s s k k k g k k k j k s s u t w w w t w w w y u s s k k g j k k k k k s s s y t t t w w t w t u s s g j g j k j j j k s s u y ",
"f j j k g g g g g g k k k k g u y u u y u u y u g j k k g g g g g g g k k j g u y u y u u y y u g k k k g g g g g g g g j j g i ",
"f k k g g g g g g g g g k j g g s j g g s g g f g k j g g g g g g g g g k k g g s g g g g s g g g k k g g g g g j g g g g k g g ",
"f k g g g g g g g g g g g g g k j k k j j k g g g g g g g g g g g g g g g g g k j j g g k k k j g g g g g g g g g g g g g g g g ",
"f k g g g g k g g g k k g g g g k g g g g g g g g g j k k k k k g g j k g g g g g g g g g g g g g g g k k j k k j g k g g g g g ",
"f g g g g g g g g g g g g g g g k k g g g g g g g g g g s k k g s g g g g g g g g g g g g g g g g g k k s g g k g g g g g g g g ",
"g k s s u u u y u u y u g j g g g g g g g g g g k k f i y u u u u u u u g k k g g g g g g g k g g k g u u y u y y u u u s k g g ",
"a s s y w w w w t y w y u i i g k k g g j j k g s s a y w w w t t t t y u s s k k k k g k k l k s s u y w w t w y w w y s s s g ",
"w y y y y u u y u y u y y w y g g s g g g g g s y t y y u y u y y y u u y y y s g g g g g g g s y t y y u u y u u y u u y w y s ",
"w y u s g g s g s g g f y w t y u u u y y u y u y t u s g g g k g g s s y y y u y y y u y y y y y t y g k s g k s g k s y y y u ",
"u s s k l k k k k k j k s s s y t t t t w t w y a s s k j k k k k k j j s s s y w t w t w t w t a s s k k k l k k k k k s s s y ",
"a k k k s g g s g g g s j k j a y y y u u y y u j k k s g s g s g s g j k k g u y u y y y u y u j k k s s s g f f k f f k k f i ",
"g k g u y u u y u u t u j k k s k g j s s k g g k k k u y u u u u u y a g k j g g s g g g g g g k k k u y u u y u u t u j k k s ",
"a s u 0 6 0 u a a i i i s s s k j k k l k k k k s i s s s s u u s u u s s u s j k k j k k k j j s i s s i i a e 7 7 t s s s s k ",
"y y w 7 6 q j z g g g g u u u s g s g s s g f g u y u g k k k j k k k s u u u s k g s g g s g s u y u g k k z a 6 6 a s u u u s ",
"a r 7 a a f ..| j g j g s s s i u u u u u y u u s s s g k k k k k k j j s s s i u u u u u u u u s s s g k l X.z a a q q s s s i ",
"s e 6 a f z 3. .g g g g g k k u u y u y u u y u j k g g g g g g g g j j g j j u u u y u y u y a k k g g s z 3...g g e 6 s l f i ",
"f r 6 s g z 3. .k s g g j j k g g s f g s g f g k k k g g g g g g g g k k j k j s s j s g s g g k k k g k z 3...g g q 6 s k k f ",
"g a a | X... .{ k k k k g k s e a g k g k j k j g g g g j j k k k k g g g g g k k k k k g k g g g g g g g l | ......k r g g f j ",
"s j l ..3.X.j s s g g f g k f r a k k g g g g g j j g g g s g g g g g g g g k g g g g g g g g g k k g g g s g | 2.2.} g g g j j ",
"g j g p f p u y u y u u g g z  .| g k j g g g g k k g u u y y u y u y u g k g g k k k k g g g g g k g u y y y i s s i u g k j j ",
"a s u w w w w t t t w t u a f  .{ k k j j j k g s s a y w w t t w w w y u s s g k k k k k l g g s s u y w t t w w w w t a s s g ",
"w y y u u u i u i u a u y y u s s s s s s s s s y t y u u u u s a u u u y y y s s s s s s s s s y y y u a i u u i a u u y t y s ",
"w u u g g k k k j k k g u y y y w t u t y y y y y u u g k j j j k k k g u y u y t t y y y t y y y u u g g a g j k j k g u u y y ",
"a k g g k j j k k j k g s g g y t t t t y y w y s g s k k k j k k k k g k s s u w t t t y y y u s s g k r q s k k j k g s g g y ",
"f k k g g g g g g k k k j k g s i i a s s s s s k k k k g g g g j k g k k k k s i s u i s s s s k k k g h h j g k g k j j k k s "
};
